<svg id="Layer_1" data-name="Layer 1" xmlns="http://www.w3.org/2000/svg" xmlns:xlink="http://www.w3.org/1999/xlink" viewBox="0 0 379.21 230"><defs><style>.cls-1{fill:none;}.cls-2{clip-path:url(#clip-path);}.cls-3{fill:#55c0a8;}.cls-4{fill:#54c0a8;}.cls-5{fill:#53c0a7;}.cls-6{fill:#52bfa7;}.cls-7{fill:#51bfa7;}.cls-8{fill:#51bfa6;}.cls-9{fill:#50bfa6;}.cls-10{fill:#4fbea6;}.cls-11{fill:#4ebea5;}.cls-12{fill:#4dbea5;}.cls-13{fill:#4cbea5;}.cls-14{fill:#4bbea5;}.cls-15{fill:#4abda4;}.cls-16{fill:#49bda4;}.cls-17{fill:#48bda4;}.cls-18{fill:#47bda3;}.cls-19{fill:#46bca3;}.cls-20{fill:#45bca3;}.cls-21{fill:#44bca2;}.cls-22{fill:#43bca2;}.cls-23{fill:#42bca1;}.cls-24{fill:#41bba1;}.cls-25{fill:#40bba1;}.cls-26{fill:#3fbba0;}.cls-27{fill:#3ebba0;}.cls-28{fill:#3dbaa0;}.cls-29{fill:#3cba9f;}.cls-30{fill:#3bba9f;}.cls-31{fill:#3aba9f;}.cls-32{fill:#39b99e;}.cls-33{fill:#38b99e;}.cls-34{fill:#37b99e;}.cls-35{fill:#36b99d;}.cls-36{fill:#35b89d;}.cls-37{fill:#34b89d;}.cls-38{fill:#33b89c;}.cls-39{fill:#32b89c;}.cls-40{fill:#31b79c;}.cls-41{fill:#30b79b;}.cls-42{fill:#2fb79b;}.cls-43{fill:#2eb79b;}.cls-44{fill:#2db79a;}.cls-45{fill:#2cb69a;}.cls-46{fill:#2bb69a;}.cls-47{fill:#2ab699;}.cls-48{fill:#29b699;}.cls-49{fill:#28b599;}.cls-50{fill:#27b598;}.cls-51{fill:#26b598;}.cls-52{fill:#25b597;}.cls-53{fill:#23b497;}.cls-54{fill:#22b497;}.cls-55{fill:#21b496;}.cls-56{fill:#20b496;}.cls-57{fill:#1fb396;}.cls-58{fill:#1eb395;}.cls-59{fill:#1db395;}.cls-60{fill:#1cb395;}.cls-61{fill:#1bb294;}.cls-62{fill:#1ab294;}.cls-63{fill:#19b294;}.cls-64{fill:#18b293;}.cls-65{fill:#17b193;}.cls-66{fill:#16b193;}.cls-67{fill:#15b192;}.cls-68{fill:#14b192;}.cls-69{fill:#13b091;}.cls-70{fill:#12b091;}.cls-71{fill:#11b091;}.cls-72{fill:#10b090;}.cls-73{fill:#0faf90;}.cls-74{fill:#0eaf90;}.cls-75{fill:#0daf8f;}.cls-76{fill:#0caf8f;}.cls-77{fill:#0bae8f;}.cls-78{fill:#09ae8e;}.cls-79{fill:#08ae8e;}.cls-80{fill:#07ae8e;}.cls-81{fill:#06ad8d;}.cls-82{fill:#05ad8d;}.cls-83{fill:#04ad8c;}.cls-84{fill:#03ad8c;}.cls-85{fill:#02ac8c;}.cls-86{fill:#01ac8b;}.cls-87{fill:#00ac8b;}.cls-88{clip-path:url(#clip-path-87);}.cls-89{fill:#00797c;}.cls-90{fill:#017a7c;}.cls-91{fill:#027a7d;}.cls-92{fill:#037b7d;}.cls-93{fill:#047b7e;}.cls-94{fill:#057c7e;}.cls-95{fill:#067c7f;}.cls-96{fill:#067d7f;}.cls-97{fill:#077e80;}.cls-98{fill:#087e80;}.cls-99{fill:#097f80;}.cls-100{fill:#0a7f81;}.cls-101{fill:#0b8081;}.cls-102{fill:#0c8182;}.cls-103{fill:#0d8182;}.cls-104{fill:#0e8283;}.cls-105{fill:#0f8283;}.cls-106{fill:#108384;}.cls-107{fill:#118484;}.cls-108{fill:#128485;}.cls-109{fill:#138585;}.cls-110{fill:#148586;}.cls-111{fill:#158686;}.cls-112{fill:#168787;}.cls-113{fill:#178787;}.cls-114{fill:#188887;}.cls-115{fill:#198988;}.cls-116{fill:#1a8988;}.cls-117{fill:#1b8a89;}.cls-118{fill:#1c8a89;}.cls-119{fill:#1d8b8a;}.cls-120{fill:#1e8c8a;}.cls-121{fill:#1f8c8b;}.cls-122{fill:#208d8b;}.cls-123{fill:#218e8c;}.cls-124{fill:#228e8c;}.cls-125{fill:#238f8d;}.cls-126{fill:#248f8d;}.cls-127{fill:#25908e;}.cls-128{fill:#26918e;}.cls-129{fill:#27918f;}.cls-130{fill:#28928f;}.cls-131{fill:#299290;}.cls-132{fill:#2a9390;}.cls-133{fill:#2b9491;}.cls-134{fill:#2c9491;}.cls-135{fill:#2d9591;}.cls-136{fill:#2e9692;}.cls-137{fill:#2f9692;}.cls-138{fill:#309793;}.cls-139{fill:#319793;}.cls-140{fill:#329894;}.cls-141{fill:#339994;}.cls-142{fill:#349995;}.cls-143{fill:#359a95;}.cls-144{fill:#369b96;}.cls-145{fill:#379b96;}.cls-146{fill:#389c97;}.cls-147{fill:#399d97;}.cls-148{fill:#3a9d98;}.cls-149{fill:#3b9e98;}.cls-150{fill:#3c9e99;}.cls-151{fill:#3d9f99;}.cls-152{fill:#3ea09a;}.cls-153{fill:#3fa09a;}.cls-154{fill:#40a19b;}.cls-155{fill:#41a29b;}.cls-156{fill:#42a29c;}.cls-157{fill:#43a39c;}.cls-158{fill:#44a39d;}.cls-159{fill:#45a49d;}.cls-160{fill:#46a59e;}.cls-161{fill:#47a59e;}.cls-162{fill:#48a69f;}.cls-163{fill:#49a79f;}.cls-164{fill:#4aa7a0;}.cls-165{fill:#4ba8a0;}.cls-166{fill:#4ca9a0;}.cls-167{fill:#4da9a1;}.cls-168{fill:#4eaaa1;}.cls-169{fill:#4faaa2;}.cls-170{fill:#50aba2;}.cls-171{fill:#51aca3;}.cls-172{fill:#52aca3;}.cls-173{fill:#53ada4;}.cls-174{fill:#54aea4;}.cls-175{fill:#55aea5;}.cls-176{fill:#57afa5;}.cls-177{fill:#58b0a6;}.cls-178{fill:#59b0a6;}.cls-179{fill:#5ab1a7;}.cls-180{fill:#5bb1a7;}.cls-181{fill:#5cb2a8;}.cls-182{fill:#5db3a8;}.cls-183{fill:#5eb3a9;}.cls-184{fill:#5fb4a9;}.cls-185{fill:#60b5aa;}.cls-186{fill:#61b5aa;}.cls-187{fill:#62b6ab;}.cls-188{fill:#63b7ab;}.cls-189{fill:#64b7ac;}.cls-190{fill:#65b8ac;}.cls-191{fill:#66b8ad;}.cls-192{fill:#67b9ad;}.cls-193{fill:#68baae;}.cls-194{fill:#69baae;}.cls-195{fill:#6abbaf;}.cls-196{fill:#6bbcaf;}.cls-197{fill:#6cbcb0;}.cls-198{fill:#6dbdb0;}.cls-199{fill:#6ebeb1;}.cls-200{fill:#6fbeb1;}.cls-201{fill:#70bfb2;}.cls-202{fill:#71c0b2;}.cls-203{fill:#72c0b3;}.cls-204{fill:#73c1b3;}.cls-205{fill:#74c1b4;}.cls-206{fill:#75c2b4;}.cls-207{fill:#76c3b5;}.cls-208{fill:#77c3b5;}.cls-209{fill:#78c4b6;}.cls-210{fill:#79c5b6;}.cls-211{fill:#7ac5b7;}.cls-212{fill:#7cc6b7;}.cls-213{fill:#7dc7b8;}.cls-214{fill:#7ec7b8;}.cls-215{fill:#7fc8b9;}.cls-216{fill:#80c9b9;}.cls-217{fill:#81c9ba;}.cls-218{fill:#82caba;}.cls-219{fill:#83cabb;}.cls-220{fill:#84cbbb;}.cls-221{fill:#85ccbc;}.cls-222{fill:#86ccbc;}.cls-223{fill:#87cdbd;}.cls-224{fill:#88cebd;}.cls-225{fill:#89cebe;}.cls-226{fill:#8acfbe;}.cls-227{fill:url(#linear-gradient);}.cls-228{opacity:0.8;}.cls-229{fill:#b8e0d5;}.cls-230{opacity:0.4;}.cls-231{opacity:0.6;}.cls-232{opacity:0.2;}.cls-233{opacity:0.1;}.cls-234{fill:url(#linear-gradient-2);}.cls-235{fill:#004b6f;}</style><clipPath id="clip-path" transform="translate(-9.42 -4.17)"><circle class="cls-1" cx="281.59" cy="120.49" r="56.44"/></clipPath><clipPath id="clip-path-87" transform="translate(-9.42 -4.17)"><path class="cls-1" d="M224.06,175.79l-0.5-.27c-0.32-.18-0.82-0.43-1.43-0.81s-1.38-.78-2.26-1.39-1.92-1.29-3-2.14a62,62,0,0,1-7.41-6.64c-1.39-1.37-2.65-3-4.07-4.68s-2.68-3.62-4-5.68c-0.69-1-1.28-2.1-1.9-3.2s-1.25-2.24-1.82-3.44-1.17-2.4-1.67-3.68-1.09-2.55-1.53-3.89a75.68,75.68,0,0,1-4-17.45l-0.23-2.35L190.19,119l0-1.34q0-1-.07-2.11l0-1.06,0-1.28a69.83,69.83,0,0,1,.78-10,81.25,81.25,0,0,1,5.27-19.41,79.94,79.94,0,0,1,10-17.43l1.5-2c0.52-.64,1-1.28,1.58-1.89,1.06-1.25,2.18-2.44,3.31-3.6a71.26,71.26,0,0,1,7-6.44,75.34,75.34,0,0,1,15.13-9.53,72.12,72.12,0,0,1,14.93-5.16,66.13,66.13,0,0,1,13-1.65c1,0,1.9,0,2.81,0s1.77,0,2.6.09c1.67,0.15,3.18.31,4.53,0.45a50.9,50.9,0,0,1,6.21,1.23c0.7,0.17,1.28.34,1.64,0.44L281,38.5v1.34l-2.13.08c-0.68,0-1.55,0-2.53.13l-3.39.31-4.18.59c-1.5.32-3.15,0.55-4.86,1l-2.66.65-2.78.83c-1,.27-1.91.62-2.89,1s-2,.68-3,1.1a77.82,77.82,0,0,0-25,15.73,79.61,79.61,0,0,0-10.93,12.62,76.93,76.93,0,0,0-8.23,15.11,79,79,0,0,0-4.86,16.5,75.49,75.49,0,0,0-1,8.37c-0.15,1.36-.12,2.81-0.18,4.19s0,2.74,0,4.08A78.2,78.2,0,0,0,209,150.84a80.47,80.47,0,0,0,5.52,10.5,79.42,79.42,0,0,0,5.26,7.5c1.6,2,2.89,3.48,3.85,4.48l1.44,1.55Z"/></clipPath><linearGradient id="linear-gradient" x1="225.01" y1="102.89" x2="329.29" y2="102.89" gradientTransform="matrix(1, -0.01, -0.01, -1, 5.28, 225.47)" gradientUnits="userSpaceOnUse"><stop offset="0" stop-color="#00797c"/><stop offset="0.84" stop-color="#00a5dc"/><stop offset="1" stop-color="#00adee"/></linearGradient><linearGradient id="linear-gradient-2" x1="335.45" y1="40.89" x2="172.89" y2="203.45" gradientTransform="matrix(1, 0, 0, -1, 0, 241.33)" gradientUnits="userSpaceOnUse"><stop offset="0" stop-color="#009f87"/><stop offset="0.15" stop-color="#008780"/><stop offset="0.35" stop-color="#006d79"/><stop offset="0.56" stop-color="#005a73"/><stop offset="0.77" stop-color="#004f70"/><stop offset="1" stop-color="#004b6f"/></linearGradient></defs><title>time_on_portal</title><g class="cls-2"><rect class="cls-3" x="215.58" y="59.5" width="113" height="113"/></g><g class="cls-2"><circle class="cls-3" cx="272.18" cy="116.33" r="56.44"/></g><g class="cls-2"><circle class="cls-4" cx="272.18" cy="116.33" r="55.77"/></g><g class="cls-2"><circle class="cls-5" cx="272.18" cy="116.33" r="55.11"/></g><g class="cls-2"><circle class="cls-6" cx="272.18" cy="116.33" r="54.45"/></g><g class="cls-2"><circle class="cls-7" cx="272.18" cy="116.33" r="53.78"/></g><g class="cls-2"><circle class="cls-8" cx="272.18" cy="116.33" r="53.12"/></g><g class="cls-2"><circle class="cls-9" cx="272.18" cy="116.33" r="52.45"/></g><g class="cls-2"><circle class="cls-10" cx="272.18" cy="116.33" r="51.79"/></g><g class="cls-2"><circle class="cls-11" cx="272.18" cy="116.33" r="51.12"/></g><g class="cls-2"><circle class="cls-12" cx="272.18" cy="116.33" r="50.46"/></g><g class="cls-2"><circle class="cls-13" cx="272.18" cy="116.33" r="49.8"/></g><g class="cls-2"><circle class="cls-14" cx="272.18" cy="116.33" r="49.13"/></g><g class="cls-2"><circle class="cls-15" cx="272.18" cy="116.33" r="48.47"/></g><g class="cls-2"><circle class="cls-16" cx="272.18" cy="116.33" r="47.81"/></g><g class="cls-2"><circle class="cls-17" cx="272.18" cy="116.33" r="47.14"/></g><g class="cls-2"><circle class="cls-18" cx="272.18" cy="116.33" r="46.48"/></g><g class="cls-2"><circle class="cls-19" cx="272.18" cy="116.33" r="45.81"/></g><g class="cls-2"><circle class="cls-20" cx="272.18" cy="116.33" r="45.15"/></g><g class="cls-2"><circle class="cls-21" cx="272.18" cy="116.33" r="44.49"/></g><g class="cls-2"><circle class="cls-22" cx="272.18" cy="116.33" r="43.82"/></g><g class="cls-2"><circle class="cls-23" cx="272.18" cy="116.33" r="43.16"/></g><g class="cls-2"><circle class="cls-24" cx="272.18" cy="116.33" r="42.49"/></g><g class="cls-2"><circle class="cls-25" cx="272.18" cy="116.33" r="41.83"/></g><g class="cls-2"><circle class="cls-26" cx="272.18" cy="116.33" r="41.17"/></g><g class="cls-2"><circle class="cls-27" cx="272.18" cy="116.33" r="40.5"/></g><g class="cls-2"><circle class="cls-28" cx="272.18" cy="116.33" r="39.84"/></g><g class="cls-2"><circle class="cls-29" cx="272.18" cy="116.33" r="39.17"/></g><g class="cls-2"><circle class="cls-30" cx="272.18" cy="116.33" r="38.51"/></g><g class="cls-2"><circle class="cls-31" cx="272.18" cy="116.33" r="37.85"/></g><g class="cls-2"><circle class="cls-32" cx="272.18" cy="116.33" r="37.18"/></g><g class="cls-2"><circle class="cls-33" cx="272.18" cy="116.33" r="36.52"/></g><g class="cls-2"><circle class="cls-34" cx="272.18" cy="116.33" r="35.85"/></g><g class="cls-2"><circle class="cls-35" cx="272.18" cy="116.33" r="35.19"/></g><g class="cls-2"><circle class="cls-36" cx="272.18" cy="116.33" r="34.53"/></g><g class="cls-2"><circle class="cls-37" cx="272.18" cy="116.33" r="33.86"/></g><g class="cls-2"><circle class="cls-38" cx="272.18" cy="116.33" r="33.2"/></g><g class="cls-2"><circle class="cls-39" cx="272.18" cy="116.33" r="32.53"/></g><g class="cls-2"><circle class="cls-40" cx="272.18" cy="116.33" r="31.87"/></g><g class="cls-2"><circle class="cls-41" cx="272.18" cy="116.33" r="31.21"/></g><g class="cls-2"><circle class="cls-42" cx="272.18" cy="116.33" r="30.54"/></g><g class="cls-2"><circle class="cls-43" cx="272.18" cy="116.33" r="29.88"/></g><g class="cls-2"><circle class="cls-44" cx="272.18" cy="116.33" r="29.22"/></g><g class="cls-2"><circle class="cls-45" cx="272.18" cy="116.33" r="28.55"/></g><g class="cls-2"><circle class="cls-46" cx="272.18" cy="116.33" r="27.89"/></g><g class="cls-2"><circle class="cls-47" cx="272.18" cy="116.33" r="27.22"/></g><g class="cls-2"><circle class="cls-48" cx="272.18" cy="116.33" r="26.56"/></g><g class="cls-2"><circle class="cls-49" cx="272.18" cy="116.33" r="25.89"/></g><g class="cls-2"><circle class="cls-50" cx="272.18" cy="116.33" r="25.23"/></g><g class="cls-2"><circle class="cls-51" cx="272.18" cy="116.33" r="24.57"/></g><g class="cls-2"><circle class="cls-52" cx="272.18" cy="116.33" r="23.9"/></g><g class="cls-2"><circle class="cls-53" cx="272.18" cy="116.33" r="23.24"/></g><g class="cls-2"><circle class="cls-54" cx="272.18" cy="116.33" r="22.58"/></g><g class="cls-2"><circle class="cls-55" cx="272.18" cy="116.33" r="21.91"/></g><g class="cls-2"><circle class="cls-56" cx="272.18" cy="116.33" r="21.25"/></g><g class="cls-2"><circle class="cls-57" cx="272.18" cy="116.33" r="20.58"/></g><g class="cls-2"><circle class="cls-58" cx="272.18" cy="116.33" r="19.92"/></g><g class="cls-2"><circle class="cls-59" cx="272.18" cy="116.33" r="19.26"/></g><g class="cls-2"><circle class="cls-60" cx="272.18" cy="116.33" r="18.59"/></g><g class="cls-2"><circle class="cls-61" cx="272.18" cy="116.33" r="17.93"/></g><g class="cls-2"><circle class="cls-62" cx="272.18" cy="116.33" r="17.26"/></g><g class="cls-2"><circle class="cls-63" cx="272.18" cy="116.33" r="16.6"/></g><g class="cls-2"><circle class="cls-64" cx="272.18" cy="116.33" r="15.93"/></g><g class="cls-2"><circle class="cls-65" cx="272.18" cy="116.33" r="15.27"/></g><g class="cls-2"><circle class="cls-66" cx="272.18" cy="116.33" r="14.61"/></g><g class="cls-2"><circle class="cls-67" cx="272.18" cy="116.33" r="13.94"/></g><g class="cls-2"><circle class="cls-68" cx="272.18" cy="116.33" r="13.28"/></g><g class="cls-2"><circle class="cls-69" cx="272.18" cy="116.33" r="12.61"/></g><g class="cls-2"><circle class="cls-70" cx="272.18" cy="116.33" r="11.95"/></g><g class="cls-2"><circle class="cls-71" cx="272.18" cy="116.33" r="11.29"/></g><g class="cls-2"><circle class="cls-72" cx="272.18" cy="116.33" r="10.62"/></g><g class="cls-2"><circle class="cls-73" cx="272.18" cy="116.33" r="9.96"/></g><g class="cls-2"><circle class="cls-74" cx="272.18" cy="116.33" r="9.3"/></g><g class="cls-2"><circle class="cls-75" cx="272.18" cy="116.33" r="8.63"/></g><g class="cls-2"><circle class="cls-76" cx="272.18" cy="116.33" r="7.97"/></g><g class="cls-2"><circle class="cls-77" cx="272.18" cy="116.33" r="7.3"/></g><g class="cls-2"><circle class="cls-78" cx="272.18" cy="116.33" r="6.64"/></g><g class="cls-2"><circle class="cls-79" cx="272.18" cy="116.33" r="5.98"/></g><g class="cls-2"><circle class="cls-80" cx="272.18" cy="116.33" r="5.31"/></g><g class="cls-2"><circle class="cls-81" cx="272.18" cy="116.33" r="4.65"/></g><g class="cls-2"><circle class="cls-82" cx="272.18" cy="116.33" r="3.98"/></g><g class="cls-2"><circle class="cls-83" cx="272.18" cy="116.33" r="3.32"/></g><g class="cls-2"><circle class="cls-84" cx="272.18" cy="116.33" r="2.66"/></g><g class="cls-2"><circle class="cls-85" cx="272.18" cy="116.33" r="1.99"/></g><g class="cls-2"><circle class="cls-86" cx="272.18" cy="116.33" r="1.33"/></g><g class="cls-2"><circle class="cls-87" cx="272.18" cy="116.33" r="0.66"/></g><g class="cls-88"><rect class="cls-89" x="180.58" y="31.5" width="4" height="140"/></g><g class="cls-88"><rect class="cls-89" x="184.58" y="31.5" width="1" height="140"/></g><g class="cls-88"><rect class="cls-90" x="185.58" y="31.5" width="1" height="140"/></g><g class="cls-88"><rect class="cls-91" x="186.58" y="31.5" height="140"/></g><g class="cls-88"><rect class="cls-92" x="186.58" y="31.5" width="1" height="140"/></g><g class="cls-88"><rect class="cls-93" x="187.58" y="31.5" width="1" height="140"/></g><g class="cls-88"><rect class="cls-94" x="188.58" y="31.5" height="140"/></g><g class="cls-88"><rect class="cls-95" x="188.58" y="31.5" width="1" height="140"/></g><g class="cls-88"><rect class="cls-96" x="189.58" y="31.5" width="1" height="140"/></g><g class="cls-88"><rect class="cls-97" x="190.58" y="31.5" height="140"/></g><g class="cls-88"><rect class="cls-98" x="190.58" y="31.5" width="1" height="140"/></g><g class="cls-88"><rect class="cls-99" x="191.58" y="31.5" height="140"/></g><g class="cls-88"><rect class="cls-100" x="191.58" y="31.5" width="1" height="140"/></g><g class="cls-88"><rect class="cls-101" x="192.58" y="31.5" width="1" height="140"/></g><g class="cls-88"><rect class="cls-102" x="193.58" y="31.5" height="140"/></g><g class="cls-88"><rect class="cls-103" x="193.58" y="31.5" width="1" height="140"/></g><g class="cls-88"><rect class="cls-104" x="194.58" y="31.5" width="1" height="140"/></g><g class="cls-88"><rect class="cls-105" x="195.58" y="31.5" height="140"/></g><g class="cls-88"><rect class="cls-106" x="195.58" y="31.5" width="1" height="140"/></g><g class="cls-88"><rect class="cls-107" x="196.58" y="31.5" height="140"/></g><g class="cls-88"><rect class="cls-108" x="196.58" y="31.5" width="1" height="140"/></g><g class="cls-88"><rect class="cls-109" x="197.58" y="31.5" width="1" height="140"/></g><g class="cls-88"><rect class="cls-110" x="198.58" y="31.5" height="140"/></g><g class="cls-88"><rect class="cls-111" x="198.58" y="31.5" width="1" height="140"/></g><g class="cls-88"><rect class="cls-112" x="199.58" y="31.5" width="1" height="140"/></g><g class="cls-88"><rect class="cls-113" x="200.58" y="31.5" height="140"/></g><g class="cls-88"><rect class="cls-114" x="200.58" y="31.5" width="1" height="140"/></g><g class="cls-88"><rect class="cls-115" x="201.58" y="31.5" height="140"/></g><g class="cls-88"><rect class="cls-116" x="201.58" y="31.5" width="1" height="140"/></g><g class="cls-88"><rect class="cls-117" x="202.58" y="31.5" width="1" height="140"/></g><g class="cls-88"><rect class="cls-118" x="203.58" y="31.5" height="140"/></g><g class="cls-88"><rect class="cls-119" x="203.58" y="31.5" width="1" height="140"/></g><g class="cls-88"><rect class="cls-120" x="204.58" y="31.5" width="1" height="140"/></g><g class="cls-88"><rect class="cls-121" x="205.58" y="31.5" height="140"/></g><g class="cls-88"><rect class="cls-122" x="205.58" y="31.5" width="1" height="140"/></g><g class="cls-88"><rect class="cls-123" x="206.58" y="31.5" height="140"/></g><g class="cls-88"><rect class="cls-124" x="206.58" y="31.5" width="1" height="140"/></g><g class="cls-88"><rect class="cls-125" x="207.58" y="31.5" width="1" height="140"/></g><g class="cls-88"><rect class="cls-126" x="208.58" y="31.5" height="140"/></g><g class="cls-88"><rect class="cls-127" x="208.58" y="31.5" width="1" height="140"/></g><g class="cls-88"><rect class="cls-128" x="209.58" y="31.5" width="1" height="140"/></g><g class="cls-88"><rect class="cls-129" x="210.58" y="31.5" height="140"/></g><g class="cls-88"><rect class="cls-130" x="210.58" y="31.5" width="1" height="140"/></g><g class="cls-88"><rect class="cls-131" x="211.58" y="31.5" height="140"/></g><g class="cls-88"><rect class="cls-132" x="211.58" y="31.5" width="1" height="140"/></g><g class="cls-88"><rect class="cls-133" x="212.58" y="31.5" width="1" height="140"/></g><g class="cls-88"><rect class="cls-134" x="213.58" y="31.5" height="140"/></g><g class="cls-88"><rect class="cls-135" x="213.58" y="31.5" width="1" height="140"/></g><g class="cls-88"><rect class="cls-136" x="214.58" y="31.5" width="1" height="140"/></g><g class="cls-88"><rect class="cls-137" x="215.58" y="31.5" height="140"/></g><g class="cls-88"><rect class="cls-138" x="215.58" y="31.5" width="1" height="140"/></g><g class="cls-88"><rect class="cls-139" x="216.58" y="31.5" height="140"/></g><g class="cls-88"><rect class="cls-140" x="216.58" y="31.5" width="1" height="140"/></g><g class="cls-88"><rect class="cls-141" x="217.58" y="31.5" width="1" height="140"/></g><g class="cls-88"><rect class="cls-142" x="218.58" y="31.5" height="140"/></g><g class="cls-88"><rect class="cls-143" x="218.58" y="31.5" width="1" height="140"/></g><g class="cls-88"><rect class="cls-144" x="219.58" y="31.5" width="1" height="140"/></g><g class="cls-88"><rect class="cls-145" x="220.58" y="31.5" height="140"/></g><g class="cls-88"><rect class="cls-146" x="220.58" y="31.5" width="1" height="140"/></g><g class="cls-88"><rect class="cls-147" x="221.58" y="31.5" height="140"/></g><g class="cls-88"><rect class="cls-148" x="221.58" y="31.5" width="1" height="140"/></g><g class="cls-88"><rect class="cls-149" x="222.58" y="31.5" width="1" height="140"/></g><g class="cls-88"><rect class="cls-150" x="223.58" y="31.5" height="140"/></g><g class="cls-88"><rect class="cls-151" x="223.58" y="31.5" width="1" height="140"/></g><g class="cls-88"><rect class="cls-152" x="224.58" y="31.5" width="1" height="140"/></g><g class="cls-88"><rect class="cls-153" x="225.58" y="31.5" height="140"/></g><g class="cls-88"><rect class="cls-154" x="225.58" y="31.5" width="1" height="140"/></g><g class="cls-88"><rect class="cls-155" x="226.58" y="31.5" height="140"/></g><g class="cls-88"><rect class="cls-156" x="226.58" y="31.5" width="1" height="140"/></g><g class="cls-88"><rect class="cls-157" x="227.58" y="31.5" width="1" height="140"/></g><g class="cls-88"><rect class="cls-158" x="228.58" y="31.5" height="140"/></g><g class="cls-88"><rect class="cls-159" x="228.58" y="31.5" width="1" height="140"/></g><g class="cls-88"><rect class="cls-160" x="229.58" y="31.5" width="1" height="140"/></g><g class="cls-88"><rect class="cls-161" x="230.58" y="31.5" height="140"/></g><g class="cls-88"><rect class="cls-162" x="230.58" y="31.5" width="1" height="140"/></g><g class="cls-88"><rect class="cls-163" x="231.58" y="31.5" width="1" height="140"/></g><g class="cls-88"><rect class="cls-164" x="232.58" y="31.5" height="140"/></g><g class="cls-88"><rect class="cls-165" x="232.58" y="31.5" width="1" height="140"/></g><g class="cls-88"><rect class="cls-166" x="233.58" y="31.5" height="140"/></g><g class="cls-88"><rect class="cls-167" x="233.58" y="31.5" width="1" height="140"/></g><g class="cls-88"><rect class="cls-168" x="234.58" y="31.5" width="1" height="140"/></g><g class="cls-88"><rect class="cls-169" x="235.58" y="31.5" height="140"/></g><g class="cls-88"><rect class="cls-170" x="235.58" y="31.5" width="1" height="140"/></g><g class="cls-88"><rect class="cls-171" x="236.58" y="31.5" width="1" height="140"/></g><g class="cls-88"><rect class="cls-172" x="237.58" y="31.5" height="140"/></g><g class="cls-88"><rect class="cls-173" x="237.58" y="31.5" width="1" height="140"/></g><g class="cls-88"><rect class="cls-174" x="238.58" y="31.5" height="140"/></g><g class="cls-88"><rect class="cls-175" x="238.58" y="31.5" width="1" height="140"/></g><g class="cls-88"><rect class="cls-176" x="239.58" y="31.5" width="1" height="140"/></g><g class="cls-88"><rect class="cls-177" x="240.58" y="31.5" height="140"/></g><g class="cls-88"><rect class="cls-178" x="240.58" y="31.5" width="1" height="140"/></g><g class="cls-88"><rect class="cls-179" x="241.58" y="31.5" width="1" height="140"/></g><g class="cls-88"><rect class="cls-180" x="242.58" y="31.5" height="140"/></g><g class="cls-88"><rect class="cls-181" x="242.58" y="31.5" width="1" height="140"/></g><g class="cls-88"><rect class="cls-182" x="243.58" y="31.5" height="140"/></g><g class="cls-88"><rect class="cls-183" x="243.58" y="31.5" width="1" height="140"/></g><g class="cls-88"><rect class="cls-184" x="244.58" y="31.5" width="1" height="140"/></g><g class="cls-88"><rect class="cls-185" x="245.58" y="31.5" height="140"/></g><g class="cls-88"><rect class="cls-186" x="245.58" y="31.5" width="1" height="140"/></g><g class="cls-88"><rect class="cls-187" x="246.58" y="31.5" width="1" height="140"/></g><g class="cls-88"><rect class="cls-188" x="247.58" y="31.5" height="140"/></g><g class="cls-88"><rect class="cls-189" x="247.58" y="31.5" width="1" height="140"/></g><g class="cls-88"><rect class="cls-190" x="248.58" y="31.5" height="140"/></g><g class="cls-88"><rect class="cls-191" x="248.58" y="31.5" width="1" height="140"/></g><g class="cls-88"><rect class="cls-192" x="249.58" y="31.5" width="1" height="140"/></g><g class="cls-88"><rect class="cls-193" x="250.58" y="31.5" height="140"/></g><g class="cls-88"><rect class="cls-194" x="250.58" y="31.5" width="1" height="140"/></g><g class="cls-88"><rect class="cls-195" x="251.58" y="31.5" width="1" height="140"/></g><g class="cls-88"><rect class="cls-196" x="252.58" y="31.5" height="140"/></g><g class="cls-88"><rect class="cls-197" x="252.58" y="31.5" width="1" height="140"/></g><g class="cls-88"><rect class="cls-198" x="253.58" y="31.5" height="140"/></g><g class="cls-88"><rect class="cls-199" x="253.58" y="31.5" width="1" height="140"/></g><g class="cls-88"><rect class="cls-200" x="254.58" y="31.5" width="1" height="140"/></g><g class="cls-88"><rect class="cls-201" x="255.58" y="31.5" height="140"/></g><g class="cls-88"><rect class="cls-202" x="255.58" y="31.5" width="1" height="140"/></g><g class="cls-88"><rect class="cls-203" x="256.58" y="31.5" width="1" height="140"/></g><g class="cls-88"><rect class="cls-204" x="257.58" y="31.5" height="140"/></g><g class="cls-88"><rect class="cls-205" x="257.58" y="31.5" width="1" height="140"/></g><g class="cls-88"><rect class="cls-206" x="258.58" y="31.5" height="140"/></g><g class="cls-88"><rect class="cls-207" x="258.58" y="31.5" width="1" height="140"/></g><g class="cls-88"><rect class="cls-208" x="259.58" y="31.5" width="1" height="140"/></g><g class="cls-88"><rect class="cls-209" x="260.58" y="31.5" height="140"/></g><g class="cls-88"><rect class="cls-210" x="260.58" y="31.5" width="1" height="140"/></g><g class="cls-88"><rect class="cls-211" x="261.58" y="31.5" width="1" height="140"/></g><g class="cls-88"><rect class="cls-212" x="262.58" y="31.5" height="140"/></g><g class="cls-88"><rect class="cls-213" x="262.58" y="31.5" width="1" height="140"/></g><g class="cls-88"><rect class="cls-214" x="263.58" y="31.5" height="140"/></g><g class="cls-88"><rect class="cls-215" x="263.58" y="31.5" width="1" height="140"/></g><g class="cls-88"><rect class="cls-216" x="264.58" y="31.5" width="1" height="140"/></g><g class="cls-88"><rect class="cls-217" x="265.58" y="31.5" height="140"/></g><g class="cls-88"><rect class="cls-218" x="265.58" y="31.5" width="1" height="140"/></g><g class="cls-88"><rect class="cls-219" x="266.58" y="31.5" width="1" height="140"/></g><g class="cls-88"><rect class="cls-220" x="267.58" y="31.5" height="140"/></g><g class="cls-88"><rect class="cls-221" x="267.58" y="31.5" width="1" height="140"/></g><g class="cls-88"><rect class="cls-222" x="268.58" y="31.5" height="140"/></g><g class="cls-88"><rect class="cls-223" x="268.58" y="31.5" width="1" height="140"/></g><g class="cls-88"><rect class="cls-224" x="269.58" y="31.5" width="1" height="140"/></g><g class="cls-88"><rect class="cls-225" x="270.58" y="31.5" height="140"/></g><g class="cls-88"><rect class="cls-226" x="270.58" y="31.5" width="1" height="140"/></g><g class="cls-88"><path class="cls-226" d="M281,175.79v0Z" transform="translate(-9.42 -4.17)"/></g><path class="cls-227" d="M274.38,164.29a6.66,6.66,0,0,1,6.66-6.68h0a6.68,6.68,0,0,1,6.69,6.66h0a6.68,6.68,0,0,1-6.67,6.68h0A6.67,6.67,0,0,1,274.38,164.29Zm-19.59-.37a6.68,6.68,0,0,1-2.41-9.13h0a6.66,6.66,0,0,1,9.12-2.41h0a6.66,6.66,0,0,1,2.41,9.12h0a6.67,6.67,0,0,1-5.77,3.32h0A6.69,6.69,0,0,1,254.79,163.92Zm43.39-2.48a6.66,6.66,0,0,1,2.38-9.13h0a6.66,6.66,0,0,1,9.13,2.38h0a6.67,6.67,0,0,1-2.38,9.13h0a6.66,6.66,0,0,1-3.37.92h0A6.66,6.66,0,0,1,298.18,161.44Zm-62.53-16.83h0a6.66,6.66,0,0,1,2.49-9.1h0a6.67,6.67,0,0,1,9.1,2.49h0a6.68,6.68,0,0,1-2.49,9.1h0a6.59,6.59,0,0,1-3.3.88h0A6.66,6.66,0,0,1,235.65,144.61ZM317.29,147a6.68,6.68,0,0,1-2.52-9.1h0a6.46,6.46,0,0,1,8.89-2.52h0a6.47,6.47,0,0,1,2.33,9.1h0c0,2.17-3.3,3.39-5.62,3.39h0A6,6,0,0,1,317.29,147Zm-81.86-22.3a6.5,6.5,0,0,1-6.6-6.57h0a6.59,6.59,0,0,1,6.73-6.51h0a6.55,6.55,0,0,1,6.61,6.6h0a6.56,6.56,0,0,1-6.67,6.48h-0.07Zm84.34-6.4h0a6.67,6.67,0,0,1,6.58-6.76h0a6.67,6.67,0,0,1,6.76,6.58h0a6.67,6.67,0,0,1-6.58,6.76h-0.09A6.68,6.68,0,0,1,319.77,118.27Zm-4.62-17.84h0a6.66,6.66,0,0,1,2.71-9h0a6.67,6.67,0,0,1,9,2.71h0a6.68,6.68,0,0,1-2.71,9h0a6.68,6.68,0,0,1-3.16.8h0A6.67,6.67,0,0,1,315.15,100.43Zm-76.67.81a6.67,6.67,0,0,1-2.3-9.15h0a6.67,6.67,0,0,1,9.15-2.3h0a6.67,6.67,0,0,1,2.31,9.15h0a6.68,6.68,0,0,1-5.74,3.25h0A6.7,6.7,0,0,1,238.48,101.24Zm62.76-15.52a6.67,6.67,0,0,1-2.2-9.18h0a6.68,6.68,0,0,1,9.18-2.2h0a6.67,6.67,0,0,1,2.19,9.18h0a6.64,6.64,0,0,1-5.69,3.18h0A6.7,6.7,0,0,1,301.24,85.72Zm-48.13-3.47a6.67,6.67,0,0,1,2.6-9.07h0a6.67,6.67,0,0,1,9.07,2.6h0a6.67,6.67,0,0,1-2.6,9.07h0a6.6,6.6,0,0,1-3.23.84h0A6.68,6.68,0,0,1,253.11,82.25Zm28.72-2.58A6.48,6.48,0,0,1,275.3,73h0a6.61,6.61,0,0,1,6.82-6.45h0a6.56,6.56,0,0,1,6.53,6.69h0a6.57,6.57,0,0,1-6.68,6.4h-0.14Z" transform="translate(-9.42 -4.17)"/><g class="cls-228"><path class="cls-229" d="M275.65,123L262,68.11l24.88,50.81a6,6,0,1,1-10.84,5.31A6.3,6.3,0,0,1,275.65,123Z" transform="translate(-9.42 -4.17)"/></g><g class="cls-230"><path class="cls-229" d="M278,125.8L232.31,92.48,284,115.41a6,6,0,1,1-4.89,11A6.37,6.37,0,0,1,278,125.8Z" transform="translate(-9.42 -4.17)"/></g><g class="cls-231"><path class="cls-229" d="M277.15,123.94L245.59,77l40.75,39.23a6,6,0,0,1-8.37,8.69A6.32,6.32,0,0,1,277.15,123.94Z" transform="translate(-9.42 -4.17)"/></g><g class="cls-232"><path class="cls-229" d="M280.32,126.33L226,110.66l56.44,3.86a6,6,0,1,1-.82,12A6.37,6.37,0,0,1,280.32,126.33Z" transform="translate(-9.42 -4.17)"/></g><g class="cls-233"><path class="cls-3" d="M303.23,69.17a56.06,56.06,0,0,1-70.67,78.46A56.07,56.07,0,1,0,303.23,69.17Z" transform="translate(-9.42 -4.17)"/></g><path class="cls-229" d="M275.67,120.67l6-56.25,6,56.25a6,6,0,1,1-12,1.28A6.3,6.3,0,0,1,275.67,120.67Z" transform="translate(-9.42 -4.17)"/><path class="cls-89" d="M284.78,127l-21.08,11.18,11.17-21.07A7.32,7.32,0,1,1,284.78,127Z" transform="translate(-9.42 -4.17)"/><rect class="cls-87" x="262.58" y="45.5" width="18" height="7"/><path class="cls-234" d="M254.17,234.17a115,115,0,1,1,115-115A115.13,115.13,0,0,1,254.17,234.17Zm0-222a107,107,0,1,0,107,107A107.12,107.12,0,0,0,254.17,12.17Z" transform="translate(-9.42 -4.17)"/><circle class="cls-235" cx="153.75" cy="51.5" r="20"/><g class="cls-230"><path class="cls-226" d="M384,50.32a4.61,4.61,0,1,1,4.61-4.6A4.61,4.61,0,0,1,384,50.32Zm0-8.21a3.61,3.61,0,1,0,3.61,3.61A3.61,3.61,0,0,0,384,42.11Z" transform="translate(-9.42 -4.17)"/></g><g class="cls-232"><path class="cls-226" d="M171,135.32a4.61,4.61,0,1,1,4.61-4.61A4.61,4.61,0,0,1,171,135.32Zm0-8.21a3.61,3.61,0,1,0,3.61,3.61A3.61,3.61,0,0,0,171,127.11Z" transform="translate(-9.42 -4.17)"/></g><path class="cls-226" d="M14,40.32a4.61,4.61,0,1,1,4.61-4.6A4.61,4.61,0,0,1,14,40.32Zm0-8.21a3.61,3.61,0,1,0,3.61,3.61A3.61,3.61,0,0,0,14,32.11Z" transform="translate(-9.42 -4.17)"/><g class="cls-231"><path class="cls-226" d="M55,188.32a4.61,4.61,0,1,1,4.61-4.6A4.61,4.61,0,0,1,55,188.32Zm0-8.21a3.61,3.61,0,1,0,3.61,3.61A3.61,3.61,0,0,0,55,180.11Z" transform="translate(-9.42 -4.17)"/></g></svg>