<?xml version="1.0" encoding="iso-8859-1"?>
<!-- Generator: Adobe Illustrator 19.0.0, SVG Export Plug-In . SVG Version: 6.00 Build 0)  -->
<svg version="1.1" id="Layer_1" xmlns="http://www.w3.org/2000/svg" xmlns:xlink="http://www.w3.org/1999/xlink" x="0px" y="0px"
	 viewBox="0 0 512 512" style="enable-background:new 0 0 512 512;" xml:space="preserve">
<g>
	<circle style="fill:#A0EBFF;" cx="256" cy="256" r="256"/>
	<path style="fill:#E34E10;" d="M321.265,431.263c-9.457,0-17.398-7.368-17.976-16.937c-5.207-85.74-32.87-115.569-62.162-147.144
		c-32.026-34.534-65.147-70.246-67.4-168.274c-0.23-9.958,7.66-18.212,17.608-18.437c9.917-0.415,18.217,7.654,18.442,17.608
		c1.935,84.357,27.822,112.266,57.789,144.584c30.807,33.219,65.725,70.871,71.716,169.482c0.604,9.938-6.963,18.483-16.906,19.082
		L321.265,431.263z"/>
	<path style="fill:#FFFFFF;" d="M346.604,118.707h-154.23c-2.985,0-5.407-2.422-5.407-5.407s2.422-5.407,5.407-5.407h154.235
		c2.985,0,5.407,2.422,5.407,5.407S349.588,118.707,346.604,118.707z"/>
	<path style="fill:#FFFFFF;" d="M346.604,146.176H195.195c-2.985,0-5.407-2.422-5.407-5.407c0-2.985,2.422-5.407,5.407-5.407
		h151.409c2.985,0,5.407,2.422,5.407,5.407C352.01,143.754,349.588,146.176,346.604,146.176z"/>
	<path style="fill:#FFFFFF;" d="M346.604,173.655H200.31c-2.985,0-5.407-2.422-5.407-5.407c0-2.985,2.422-5.407,5.407-5.407h146.294
		c2.985,0,5.407,2.422,5.407,5.407C352.01,171.233,349.588,173.655,346.604,173.655z"/>
	<path style="fill:#FFFFFF;" d="M313.8,352.471H171.412c-2.985,0-5.407-2.422-5.407-5.407s2.422-5.407,5.407-5.407H313.8
		c2.985,0,5.407,2.422,5.407,5.407S316.785,352.471,313.8,352.471z"/>
	<path style="fill:#FFFFFF;" d="M318.761,379.95H174.234c-2.985,0-5.407-2.422-5.407-5.407c0-2.985,2.422-5.407,5.407-5.407h144.527
		c2.985,0,5.407,2.422,5.407,5.407C324.168,377.528,321.746,379.95,318.761,379.95z"/>
	<path style="fill:#FFFFFF;" d="M321.382,407.419H179.348c-2.985,0-5.407-2.422-5.407-5.407s2.422-5.407,5.407-5.407h142.034
		c2.985,0,5.407,2.422,5.407,5.407S324.367,407.419,321.382,407.419z"/>
	<path style="fill:#FC611F;" d="M180.224,434.724c-7.977,0-15.227-5.417-17.224-13.507c-24.832-100.828,39.014-145.3,90.317-181.038
		c51.871-36.127,92.841-64.66,68.05-139.561c-3.077-9.308,1.966-19.343,11.274-22.431c9.308-3.092,19.348,1.966,22.431,11.274
		c33.106,100.05-27.761,142.438-81.464,179.85c-51.052,35.553-95.145,66.268-76.14,143.411c2.345,9.523-3.471,19.133-12.989,21.478
		C183.06,434.555,181.627,434.724,180.224,434.724z"/>
</g>
<g>
</g>
<g>
</g>
<g>
</g>
<g>
</g>
<g>
</g>
<g>
</g>
<g>
</g>
<g>
</g>
<g>
</g>
<g>
</g>
<g>
</g>
<g>
</g>
<g>
</g>
<g>
</g>
<g>
</g>
</svg>
