<svg id="Layer_1" data-name="Layer 1" xmlns="http://www.w3.org/2000/svg" viewBox="0 0 127.21 110.21"><defs><style>.cls-1{fill:#fdd78e;}.cls-2{fill:#f69027;}.cls-3{opacity:0.5;}.cls-4{fill:#fbb715;}.cls-5{fill:#ec4b4a;}.cls-6{fill:#ffe5b9;}.cls-7{fill:#fcb813;}</style></defs><title>messages</title><path class="cls-1" d="M117.42,95.16a10.75,10.75,0,0,1-10.72,10.72H46.48A10.75,10.75,0,0,1,35.77,95.16V55.5A10.75,10.75,0,0,1,46.48,44.78h60.22A10.75,10.75,0,0,1,117.42,55.5V95.16Z" transform="translate(-21.92 -12.39)"/><rect class="cls-2" x="42.66" y="56.38" width="48.6" height="12.6"/><g class="cls-3"><path class="cls-4" d="M79.92,44.78h27.23a10.3,10.3,0,0,1,10.27,10.27V95.6a10.3,10.3,0,0,1-10.27,10.27H79.46" transform="translate(-21.92 -12.39)"/></g><rect class="cls-5" x="30.66" y="74.98" width="24" height="12"/><rect class="cls-5" x="30.66" y="38.98" width="49.2" height="12.6"/><circle class="cls-2" cx="24.57" cy="45.35" r="4.13"/><circle class="cls-2" cx="24.57" cy="80.98" r="4.13"/><circle class="cls-6" cx="36.18" cy="81.05" r="1.77"/><circle class="cls-6" cx="42.17" cy="81.05" r="1.77"/><circle class="cls-6" cx="48.16" cy="81.05" r="1.77"/><rect class="cls-6" x="35.46" y="43.78" width="38.4" height="0.6"/><rect class="cls-6" x="35.46" y="46.18" width="38.4" height="1.2"/><rect class="cls-6" x="48.06" y="61.18" width="37.8" height="0.6"/><rect class="cls-6" x="48.06" y="63.58" width="37.8" height="1.2"/><path class="cls-7" d="M144.53,21.61A4.61,4.61,0,1,1,149.13,17,4.61,4.61,0,0,1,144.53,21.61Zm0-8.21A3.61,3.61,0,1,0,148.13,17,3.61,3.61,0,0,0,144.53,13.39Z" transform="translate(-21.92 -12.39)"/><path class="cls-7" d="M109.53,122.61a4.61,4.61,0,1,1,4.61-4.61A4.61,4.61,0,0,1,109.53,122.61Zm0-8.21a3.61,3.61,0,1,0,3.61,3.61A3.61,3.61,0,0,0,109.53,114.39Z" transform="translate(-21.92 -12.39)"/><path class="cls-7" d="M26.53,49.61A4.61,4.61,0,1,1,31.13,45,4.61,4.61,0,0,1,26.53,49.61Zm0-8.21A3.61,3.61,0,1,0,30.13,45,3.61,3.61,0,0,0,26.53,41.39Z" transform="translate(-21.92 -12.39)"/></svg>