<svg id="Layer_1" data-name="Layer 1" xmlns="http://www.w3.org/2000/svg" viewBox="0 0 95.08 119.52"><defs><style>.cls-1{fill:#bfebfa;}.cls-2{fill:#80d6f6;}.cls-3{fill:#00adee;}.cls-4{fill:#004b6f;}</style></defs><title>my_account</title><path class="cls-1" d="M117.86,58.63a4.61,4.61,0,1,1,3.26-1.35A4.57,4.57,0,0,1,117.86,58.63Zm0-8.21a3.61,3.61,0,0,0-2.55,6.16,3.7,3.7,0,0,0,5.1,0A3.61,3.61,0,0,0,117.86,50.42Z" transform="translate(-27.38 -9.78)"/><path class="cls-1" d="M57.69,129.3A4.61,4.61,0,1,1,60.95,128,4.57,4.57,0,0,1,57.69,129.3Zm0-8.21a3.61,3.61,0,0,0-2.55,6.16,3.7,3.7,0,0,0,5.1,0A3.61,3.61,0,0,0,57.69,121.09Z" transform="translate(-27.38 -9.78)"/><path class="cls-1" d="M50.62,19a4.61,4.61,0,1,1,3.26-1.35A4.57,4.57,0,0,1,50.62,19Zm0-8.21a3.61,3.61,0,0,0-2.55,6.16,3.69,3.69,0,0,0,5.1,0A3.61,3.61,0,0,0,50.62,10.78Z" transform="translate(-27.38 -9.78)"/><rect class="cls-1" y="39.97" width="80.16" height="59.1"/><rect class="cls-2" x="40.2" y="39.92" width="40.04" height="59.19"/><rect class="cls-3" x="30.33" y="48.61" width="17.49" height="4.64"/><rect class="cls-3" x="51.63" y="48.61" width="23.58" height="4.64"/><rect class="cls-4" x="30.33" y="57.61" width="17.49" height="4.64"/><rect class="cls-4" x="51.63" y="57.61" width="23.58" height="4.64"/><rect class="cls-3" x="30.33" y="66.6" width="17.49" height="4.64"/><rect class="cls-3" x="51.63" y="66.6" width="23.58" height="4.64"/><rect class="cls-4" x="5.96" y="75.6" width="27" height="4.64"/><rect class="cls-4" x="38.82" y="75.6" width="36.39" height="4.64"/><rect class="cls-3" x="5.96" y="84.59" width="27" height="4.64"/><rect class="cls-3" x="38.82" y="84.59" width="36.39" height="4.64"/><rect class="cls-3" x="5.96" y="48.61" width="19.73" height="22.63"/></svg>