<svg xmlns="http://www.w3.org/2000/svg" xmlns:xlink="http://www.w3.org/1999/xlink" viewBox="0 0 110.3 82.4"><defs><style>.a{fill:none;}.b{clip-path:url(#a);}.c{fill:#fbca66;}.d{fill:#ffe1ad;}.e{fill:#f9b84d;}.f{fill:#f68f27;}.g{fill:#f07931;}.h{fill:#ec4b4b;}</style><clipPath id="a" transform="translate(-21.1 -12.1)"><rect class="a" x="-0.3" y="-0.1" width="160.7" height="104.36"/></clipPath></defs><title>WEEKLY-14</title><g class="b"><g class="b"><polygon class="c" points="0 82.4 55.5 0 110.3 82.4 0 82.4"/></g><g class="b"><polygon class="d" points="55.6 0.3 56 0.8 55.7 0 55.6 0.3"/></g><g class="b"><polygon class="e" points="55.6 0.3 27.6 82.4 83.5 82.4 56 0.8 55.6 0.3"/></g><g class="b"><polygon class="f" points="41.9 4.3 45.6 11.8 53.9 13 47.9 18.9 49.3 27.1 41.9 23.2 34.4 27.1 35.8 18.9 29.8 13 38.1 11.8 41.9 4.3"/></g><g class="b"><polygon class="g" points="15.5 29.9 20.3 39.6 31 41.1 23.3 48.7 25.1 59.4 15.5 54.3 5.9 59.4 7.8 48.7 0 41.1 10.7 39.6 15.5 29.9"/></g><g class="b"><polygon class="h" points="91 27.2 96.8 39.1 110 41 100.5 50.2 102.7 63.3 91 57.1 79.2 63.3 81.5 50.2 72 41 85.1 39.1 91 27.2"/></g></g></svg>