<svg id="Layer_1" data-name="Layer 1" xmlns="http://www.w3.org/2000/svg" xmlns:xlink="http://www.w3.org/1999/xlink" viewBox="0 0 119.52 78.1"><defs><style>.cls-1,.cls-10,.cls-11,.cls-12,.cls-13,.cls-14,.cls-15,.cls-2,.cls-3,.cls-4,.cls-5,.cls-6,.cls-7,.cls-8,.cls-9{fill:none;}.cls-2{clip-path:url(#clip-path);}.cls-3{clip-path:url(#clip-path-2);}.cls-4{clip-path:url(#clip-path-4);}.cls-5{clip-path:url(#clip-path-7);}.cls-6{clip-path:url(#clip-path-10);}.cls-7{clip-path:url(#clip-path-13);}.cls-8{clip-path:url(#clip-path-17);}.cls-9{clip-path:url(#clip-path-158);}.cls-10{clip-path:url(#clip-path-311);}.cls-11{clip-path:url(#clip-path-314);}.cls-12{clip-path:url(#clip-path-317);}.cls-13{clip-path:url(#clip-path-320);}.cls-14{clip-path:url(#clip-path-323);}.cls-15{clip-path:url(#clip-path-326);}.cls-16{fill:#f69027;}.cls-17{fill:#fbb715;}.cls-18{opacity:0.6;}.cls-19{fill:#ed4b4a;}.cls-20{fill:#ef623e;}.cls-21{fill:#fff;}.cls-22{clip-path:url(#clip-path-329);}.cls-23{fill:#feffff;}.cls-24{fill:#fdfeff;}.cls-25{fill:#fcfeff;}.cls-26{fill:#fbfdff;}.cls-27{fill:#fafdff;}.cls-28{fill:#f9fdff;}.cls-29{fill:#f8fcfe;}.cls-30{fill:#f7fcfe;}.cls-31{fill:#f6fcfe;}.cls-32{fill:#f5fbfe;}.cls-33{fill:#f4fbfe;}.cls-34{fill:#f3fbfe;}.cls-35{fill:#f3fafe;}.cls-36{fill:#f2fafe;}.cls-37{fill:#f1fafe;}.cls-38{fill:#f0f9fe;}.cls-39{fill:#eff9fe;}.cls-40{fill:#eef9fe;}.cls-41{fill:#edf8fe;}.cls-42{fill:#ecf8fe;}.cls-43{fill:#ebf7fd;}.cls-44{fill:#eaf7fd;}.cls-45{fill:#e9f7fd;}.cls-46{fill:#e8f6fd;}.cls-47{fill:#e7f6fd;}.cls-48{fill:#e6f5fd;}.cls-49{fill:#e5f5fd;}.cls-50{fill:#e4f5fd;}.cls-51{fill:#e2f4fd;}.cls-52{fill:#e1f4fd;}.cls-53{fill:#e0f3fd;}.cls-54{fill:#dff3fd;}.cls-55{fill:#def2fc;}.cls-56{fill:#ddf2fc;}.cls-57{fill:#dbf2fc;}.cls-58{fill:#daf1fc;}.cls-59{fill:#d9f1fc;}.cls-60{fill:#d8f0fc;}.cls-61{fill:#d7f0fc;}.cls-62{fill:#d5effc;}.cls-63{fill:#d4effc;}.cls-64{fill:#d3eefc;}.cls-65{fill:#d1eefc;}.cls-66{fill:#d0edfb;}.cls-67{fill:#cfedfb;}.cls-68{fill:#ceecfb;}.cls-69{fill:#ccecfb;}.cls-70{fill:#cbebfb;}.cls-71{fill:#caebfb;}.cls-72{fill:#c8eafb;}.cls-73{fill:#c7eafb;}.cls-74{fill:#c5e9fb;}.cls-75{fill:#c4e9fb;}.cls-76{fill:#c3e8fa;}.cls-77{fill:#c1e8fa;}.cls-78{fill:#c0e7fa;}.cls-79{fill:#bee7fa;}.cls-80{fill:#bde6fa;}.cls-81{fill:#fcb813;}.cls-82{clip-path:url(#clip-path-397);}.cls-83{clip-path:url(#clip-path-398);}.cls-84{fill:#b8e0d5;}.cls-85{clip-path:url(#clip-path-400);}.cls-86{clip-path:url(#clip-path-402);}.cls-87{clip-path:url(#clip-path-404);}.cls-88{clip-path:url(#clip-path-406);}.cls-89{clip-path:url(#clip-path-408);}.cls-90{clip-path:url(#clip-path-410);}.cls-91{clip-path:url(#clip-path-412);}.cls-92{clip-path:url(#clip-path-414);}.cls-93{clip-path:url(#clip-path-416);}.cls-94{clip-path:url(#clip-path-418);}</style><clipPath id="clip-path"><rect class="cls-1" x="46.82" y="75.27" width="1.26" height="1.26"/></clipPath><clipPath id="clip-path-2"><rect class="cls-2" x="46.82" y="75.27" width="1.26" height="1.26"/></clipPath><clipPath id="clip-path-4"><rect class="cls-1" x="46.82" y="76.53" width="1.26" height="0.84"/></clipPath><clipPath id="clip-path-7"><rect class="cls-1" x="46.82" y="77.36" width="1.26" height="1.26"/></clipPath><clipPath id="clip-path-10"><rect class="cls-1" x="46.82" y="78.62" width="1.26" height="1.26"/></clipPath><clipPath id="clip-path-13"><rect class="cls-1" x="46.82" y="79.88" width="1.26" height="0.84"/></clipPath><clipPath id="clip-path-16"><rect class="cls-1" x="46.82" y="80.71" width="1.26" height="1.26"/></clipPath><clipPath id="clip-path-17"><path class="cls-1" d="M39.35,71.07a2.31,2.31,0,0,1,2.31-2.38A2.22,2.22,0,0,1,44,71a2.29,2.29,0,0,1-2.31,2.31A2.45,2.45,0,0,1,39.35,71.07Z"/></clipPath><clipPath id="clip-path-158"><path class="cls-1" d="M51.1,71.07a2.31,2.31,0,0,1,2.31-2.38A2.22,2.22,0,0,1,55.73,71a2.29,2.29,0,0,1-2.31,2.31A2.45,2.45,0,0,1,51.1,71.07Z"/></clipPath><clipPath id="clip-path-311"><rect class="cls-1" x="46.82" y="68.56" width="1.26" height="1.26"/></clipPath><clipPath id="clip-path-314"><rect class="cls-1" x="46.82" y="69.82" width="1.26" height="0.84"/></clipPath><clipPath id="clip-path-317"><rect class="cls-1" x="46.82" y="70.66" width="1.26" height="1.26"/></clipPath><clipPath id="clip-path-320"><rect class="cls-1" x="46.82" y="71.92" width="1.26" height="1.26"/></clipPath><clipPath id="clip-path-323"><rect class="cls-1" x="46.82" y="73.17" width="1.26" height="0.84"/></clipPath><clipPath id="clip-path-326"><rect class="cls-1" x="46.82" y="74.01" width="1.26" height="1.26"/></clipPath><clipPath id="clip-path-329" transform="translate(-6.4 -47.95)"><path class="cls-1" d="M47.53,69.55c0.52,0,.65.7,0.65,1.23s-1.3.57-1.3,0S46.94,69.55,47.53,69.55Z"/></clipPath><clipPath id="clip-path-397" transform="translate(-6.4 -47.95)"><path class="cls-1" d="M39.35,71.07a2.31,2.31,0,0,1,2.31-2.38A2.22,2.22,0,0,1,44,71a2.29,2.29,0,0,1-2.31,2.31A2.45,2.45,0,0,1,39.35,71.07Z"/></clipPath><clipPath id="clip-path-398" transform="translate(-6.4 -47.95)"><rect class="cls-10" x="46.82" y="68.56" width="1.26" height="1.26"/></clipPath><clipPath id="clip-path-400" transform="translate(-6.4 -47.95)"><rect class="cls-11" x="46.82" y="69.82" width="1.26" height="0.84"/></clipPath><clipPath id="clip-path-402" transform="translate(-6.4 -47.95)"><rect class="cls-12" x="46.82" y="70.66" width="1.26" height="1.26"/></clipPath><clipPath id="clip-path-404" transform="translate(-6.4 -47.95)"><rect class="cls-13" x="46.82" y="71.92" width="1.26" height="1.26"/></clipPath><clipPath id="clip-path-406" transform="translate(-6.4 -47.95)"><rect class="cls-14" x="46.82" y="73.17" width="1.26" height="0.84"/></clipPath><clipPath id="clip-path-408" transform="translate(-6.4 -47.95)"><rect class="cls-15" x="46.82" y="74.01" width="1.26" height="1.26"/></clipPath><clipPath id="clip-path-410" transform="translate(-6.4 -47.95)"><rect class="cls-3" x="46.82" y="75.27" width="1.26" height="1.26"/></clipPath><clipPath id="clip-path-412" transform="translate(-6.4 -47.95)"><rect class="cls-4" x="46.82" y="76.53" width="1.26" height="0.84"/></clipPath><clipPath id="clip-path-414" transform="translate(-6.4 -47.95)"><rect class="cls-5" x="46.82" y="77.36" width="1.26" height="1.26"/></clipPath><clipPath id="clip-path-416" transform="translate(-6.4 -47.95)"><rect class="cls-6" x="46.82" y="78.62" width="1.26" height="1.26"/></clipPath><clipPath id="clip-path-418" transform="translate(-6.4 -47.95)"><rect class="cls-7" x="46.82" y="79.88" width="1.26" height="0.84"/></clipPath></defs><title>student_profile</title><g id="Layer_1-2" data-name="Layer 1"><path class="cls-16" d="M81.67,126.05a4.61,4.61,0,1,1,3.26-1.35A4.57,4.57,0,0,1,81.67,126.05Zm0-8.21A3.61,3.61,0,0,0,79.12,124a3.7,3.7,0,0,0,5.1,0A3.61,3.61,0,0,0,81.67,117.84Z" transform="translate(-6.4 -47.95)"/><path class="cls-16" d="M11,65.89a4.61,4.61,0,1,1,3.26-1.35A4.57,4.57,0,0,1,11,65.89Zm0-8.21a3.61,3.61,0,0,0-2.55,6.16,3.7,3.7,0,0,0,5.1,0A3.61,3.61,0,0,0,11,57.67Z" transform="translate(-6.4 -47.95)"/><path class="cls-16" d="M121.31,58.81a4.61,4.61,0,1,1,3.26-1.35A4.57,4.57,0,0,1,121.31,58.81Zm0-8.21a3.61,3.61,0,0,0-2.55,6.16,3.7,3.7,0,0,0,5.1,0A3.61,3.61,0,0,0,121.31,50.6Z" transform="translate(-6.4 -47.95)"/></g><rect class="cls-17" x="20.35" y="0.17" width="80.98" height="59.61"/><g class="cls-18"><path class="cls-19" d="M40.27,87.18a1,1,0,1,1,1-1A1,1,0,0,1,40.27,87.18Zm0-1.68a0.66,0.66,0,1,0,.66.66A0.66,0.66,0,0,0,40.27,85.5Z" transform="translate(-6.4 -47.95)"/></g><rect class="cls-16" x="27.01" y="8.05" width="28.91" height="22.63"/><rect class="cls-20" x="27.01" y="35.28" width="28.91" height="5.87"/><rect class="cls-16" x="27.01" y="44.65" width="28.91" height="5.87"/><rect class="cls-16" x="60.83" y="8.05" width="35.03" height="5.87"/><rect class="cls-16" x="60.83" y="17.2" width="35.03" height="5.87"/><rect class="cls-16" x="60.83" y="26.35" width="35.03" height="5.87"/><rect class="cls-16" x="60.83" y="35.5" width="35.03" height="5.87"/><rect class="cls-16" x="60.83" y="44.65" width="35.03" height="5.87"/><path class="cls-19" d="M56.41,65.3A4.88,4.88,0,0,0,56.16,63,8.07,8.07,0,0,0,48,57.58H47A8.07,8.07,0,0,0,38.88,63a4.85,4.85,0,0,0-.24,2.27c0.08,0.65.25,1.21,0.29,1.77,0,0.22-.07,2.66-0.07,3.23,0,3.16,3.83,6.95,8.66,6.95,4.67,0,8.66-3.91,8.66-6.95,0-.57-0.08-3-0.07-3.23C56.16,66.51,56.33,65.95,56.41,65.3Z" transform="translate(-6.4 -47.95)"/><path class="cls-21" d="M50.72,68.65a1,1,0,0,1-1-1,0.07,0.07,0,1,1,.14,0,0.82,0.82,0,1,0,1.63,0,0.07,0.07,0,0,1,.14,0A1,1,0,0,1,50.72,68.65Z" transform="translate(-6.4 -47.95)"/><path class="cls-21" d="M44.36,68.65a1,1,0,0,1-1-1,0.07,0.07,0,1,1,.14,0,0.82,0.82,0,1,0,1.64,0,0.07,0.07,0,0,1,.14,0A1,1,0,0,1,44.36,68.65Z" transform="translate(-6.4 -47.95)"/><g class="cls-22"><polygon class="cls-21" points="41.14 21.61 40.48 21.61 40.48 21.61 41.14 21.61"/></g><g class="cls-22"><polygon class="cls-21" points="41.78 21.63 40.48 21.63 40.48 21.61 41.14 21.61 41.78 21.61 41.78 21.63"/></g><g class="cls-22"><rect class="cls-21" x="40.48" y="21.63" width="1.3" height="0.03"/></g><g class="cls-22"><rect class="cls-21" x="40.48" y="21.65" width="1.3" height="0.03"/></g><g class="cls-22"><rect class="cls-23" x="40.48" y="21.68" width="1.3" height="0.03"/></g><g class="cls-22"><rect class="cls-23" x="40.48" y="21.71" width="1.3" height="0.03"/></g><g class="cls-22"><rect class="cls-24" x="40.48" y="21.73" width="1.3" height="0.03"/></g><g class="cls-22"><rect class="cls-24" x="40.48" y="21.76" width="1.3" height="0.03"/></g><g class="cls-22"><rect class="cls-25" x="40.48" y="21.78" width="1.3" height="0.03"/></g><g class="cls-22"><rect class="cls-25" x="40.48" y="21.81" width="1.3" height="0.03"/></g><g class="cls-22"><rect class="cls-26" x="40.48" y="21.83" width="1.3" height="0.03"/></g><g class="cls-22"><rect class="cls-27" x="40.48" y="21.85" width="1.3" height="0.03"/></g><g class="cls-22"><rect class="cls-27" x="40.48" y="21.88" width="1.3" height="0.03"/></g><g class="cls-22"><rect class="cls-28" x="40.48" y="21.9" width="1.3" height="0.03"/></g><g class="cls-22"><rect class="cls-29" x="40.48" y="21.93" width="1.3" height="0.03"/></g><g class="cls-22"><rect class="cls-30" x="40.48" y="21.95" width="1.3" height="0.03"/></g><g class="cls-22"><rect class="cls-30" x="40.48" y="21.98" width="1.3" height="0.03"/></g><g class="cls-22"><rect class="cls-31" x="40.48" y="22" width="1.3" height="0.03"/></g><g class="cls-22"><rect class="cls-32" x="40.48" y="22.03" width="1.3" height="0.03"/></g><g class="cls-22"><rect class="cls-33" x="40.48" y="22.05" width="1.3" height="0.03"/></g><g class="cls-22"><rect class="cls-34" x="40.48" y="22.08" width="1.3" height="0.03"/></g><g class="cls-22"><rect class="cls-35" x="40.48" y="22.1" width="1.3" height="0.03"/></g><g class="cls-22"><rect class="cls-36" x="40.48" y="22.13" width="1.3" height="0.03"/></g><g class="cls-22"><rect class="cls-37" x="40.48" y="22.15" width="1.3" height="0.03"/></g><g class="cls-22"><rect class="cls-38" x="40.48" y="22.18" width="1.3" height="0.03"/></g><g class="cls-22"><rect class="cls-39" x="40.48" y="22.2" width="1.3" height="0.03"/></g><g class="cls-22"><rect class="cls-40" x="40.48" y="22.23" width="1.3" height="0.03"/></g><g class="cls-22"><rect class="cls-41" x="40.48" y="22.25" width="1.3" height="0.03"/></g><g class="cls-22"><rect class="cls-42" x="40.48" y="22.28" width="1.3" height="0.03"/></g><g class="cls-22"><rect class="cls-43" x="40.48" y="22.3" width="1.3" height="0.03"/></g><g class="cls-22"><rect class="cls-44" x="40.48" y="22.33" width="1.3" height="0.03"/></g><g class="cls-22"><rect class="cls-45" x="40.48" y="22.35" width="1.3" height="0.03"/></g><g class="cls-22"><rect class="cls-46" x="40.48" y="22.38" width="1.3" height="0.03"/></g><g class="cls-22"><rect class="cls-47" x="40.48" y="22.4" width="1.3" height="0.03"/></g><g class="cls-22"><rect class="cls-48" x="40.48" y="22.43" width="1.3" height="0.03"/></g><g class="cls-22"><rect class="cls-49" x="40.48" y="22.45" width="1.3" height="0.03"/></g><g class="cls-22"><rect class="cls-50" x="40.48" y="22.48" width="1.3" height="0.03"/></g><g class="cls-22"><rect class="cls-51" x="40.48" y="22.5" width="1.3" height="0.03"/></g><g class="cls-22"><rect class="cls-52" x="40.48" y="22.53" width="1.3" height="0.03"/></g><g class="cls-22"><rect class="cls-53" x="40.48" y="22.55" width="1.3" height="0.03"/></g><g class="cls-22"><rect class="cls-54" x="40.48" y="22.58" width="1.3" height="0.03"/></g><g class="cls-22"><rect class="cls-55" x="40.48" y="22.6" width="1.3" height="0.03"/></g><g class="cls-22"><rect class="cls-56" x="40.48" y="22.63" width="1.3" height="0.03"/></g><g class="cls-22"><rect class="cls-57" x="40.48" y="22.65" width="1.3" height="0.03"/></g><g class="cls-22"><rect class="cls-58" x="40.48" y="22.68" width="1.3" height="0.03"/></g><g class="cls-22"><rect class="cls-59" x="40.48" y="22.7" width="1.3" height="0.03"/></g><g class="cls-22"><rect class="cls-60" x="40.48" y="22.73" width="1.3" height="0.03"/></g><g class="cls-22"><rect class="cls-61" x="40.48" y="22.75" width="1.3" height="0.03"/></g><g class="cls-22"><rect class="cls-62" x="40.48" y="22.78" width="1.3" height="0.03"/></g><g class="cls-22"><rect class="cls-63" x="40.48" y="22.8" width="1.3" height="0.03"/></g><g class="cls-22"><rect class="cls-64" x="40.48" y="22.83" width="1.3" height="0.03"/></g><g class="cls-22"><rect class="cls-65" x="40.48" y="22.85" width="1.3" height="0.03"/></g><g class="cls-22"><rect class="cls-66" x="40.48" y="22.88" width="1.3" height="0.03"/></g><g class="cls-22"><rect class="cls-67" x="40.48" y="22.9" width="1.3" height="0.03"/></g><g class="cls-22"><rect class="cls-68" x="40.48" y="22.93" width="1.3" height="0.03"/></g><g class="cls-22"><rect class="cls-69" x="40.48" y="22.95" width="1.3" height="0.03"/></g><g class="cls-22"><rect class="cls-70" x="40.48" y="22.97" width="1.3" height="0.03"/></g><g class="cls-22"><rect class="cls-71" x="40.48" y="23" width="1.3" height="0.03"/></g><g class="cls-22"><rect class="cls-72" x="40.48" y="23.03" width="1.3" height="0.03"/></g><g class="cls-22"><rect class="cls-73" x="40.48" y="23.05" width="1.3" height="0.03"/></g><g class="cls-22"><rect class="cls-74" x="40.48" y="23.08" width="1.3" height="0.03"/></g><g class="cls-22"><rect class="cls-75" x="40.48" y="23.1" width="1.3" height="0.03"/></g><g class="cls-22"><rect class="cls-76" x="40.48" y="23.13" width="1.3" height="0.03"/></g><g class="cls-22"><rect class="cls-77" x="40.48" y="23.15" width="1.3" height="0.03"/></g><g class="cls-22"><rect class="cls-78" x="40.48" y="23.18" width="1.3" height="0.03"/></g><g class="cls-22"><rect class="cls-79" x="40.48" y="23.2" width="1.3" height="0.03"/></g><g class="cls-22"><rect class="cls-80" x="40.48" y="23.22" width="1.3" height="0.03"/></g><g class="cls-22"><rect class="cls-80" x="40.48" y="23.25" width="1.3" height="0.15"/></g><path class="cls-21" d="M48.61,73.18a2,2,0,0,1-2.15-.1c-0.07-.06-0.17,0-0.1.1a2.13,2.13,0,0,0,2.31.12,0.07,0.07,0,0,0-.07-0.12h0Z" transform="translate(-6.4 -47.95)"/><path class="cls-20" d="M56.31,62.93a8.07,8.07,0,0,0-8.14-5.45h-1A8.07,8.07,0,0,0,39,62.93a4.85,4.85,0,0,0-.24,2.27c0,0.4,6.53-2.47,11.65-3.22C53.55,61.53,56.42,63.26,56.31,62.93Z" transform="translate(-6.4 -47.95)"/><path class="cls-21" d="M50.72,68.65a1,1,0,0,1-1-1,0.07,0.07,0,1,1,.14,0,0.82,0.82,0,1,0,1.63,0,0.07,0.07,0,0,1,.14,0A1,1,0,0,1,50.72,68.65Z" transform="translate(-6.4 -47.95)"/><path class="cls-21" d="M44.36,68.65a1,1,0,0,1-1-1,0.07,0.07,0,1,1,.14,0,0.82,0.82,0,1,0,1.64,0,0.07,0.07,0,0,1,.14,0A1,1,0,0,1,44.36,68.65Z" transform="translate(-6.4 -47.95)"/><path class="cls-81" d="M47.53,69.55c0.52,0,.65.7,0.65,1.23s-1.3.57-1.3,0S46.94,69.55,47.53,69.55Z" transform="translate(-6.4 -47.95)"/><g class="cls-82"><g class="cls-83"><circle class="cls-84" cx="41.58" cy="21.78" r="0.08"/><circle class="cls-84" cx="41.02" cy="21.78" r="0.08"/><circle class="cls-84" cx="41.58" cy="21.22" r="0.08"/><circle class="cls-84" cx="41.02" cy="21.22" r="0.08"/><circle class="cls-84" cx="40.74" cy="21.5" r="0.08"/><circle class="cls-84" cx="41.3" cy="21.5" r="0.08"/><circle class="cls-84" cx="40.74" cy="20.94" r="0.08"/><circle class="cls-84" cx="41.3" cy="20.94" r="0.08"/><circle class="cls-84" cx="40.46" cy="21.78" r="0.08"/><circle class="cls-84" cx="40.46" cy="21.22" r="0.08"/><circle class="cls-84" cx="41.58" cy="20.66" r="0.08"/><circle class="cls-84" cx="41.02" cy="20.66" r="0.08"/><circle class="cls-84" cx="40.46" cy="20.66" r="0.08"/></g><g class="cls-82"><g class="cls-85"><circle class="cls-84" cx="41.58" cy="22.9" r="0.08"/><circle class="cls-84" cx="41.02" cy="22.9" r="0.08"/><circle class="cls-84" cx="41.58" cy="22.34" r="0.08"/><circle class="cls-84" cx="41.02" cy="22.34" r="0.08"/><circle class="cls-84" cx="40.74" cy="22.61" r="0.08"/><circle class="cls-84" cx="41.3" cy="22.61" r="0.08"/><circle class="cls-84" cx="40.74" cy="22.06" r="0.08"/><circle class="cls-84" cx="41.3" cy="22.06" r="0.08"/><circle class="cls-84" cx="40.46" cy="22.9" r="0.08"/><circle class="cls-84" cx="40.46" cy="22.34" r="0.08"/><circle class="cls-84" cx="41.58" cy="21.78" r="0.08"/><circle class="cls-84" cx="41.02" cy="21.78" r="0.08"/><circle class="cls-84" cx="40.46" cy="21.78" r="0.08"/></g><g class="cls-82"><g class="cls-86"><circle class="cls-84" cx="41.58" cy="24.01" r="0.08"/><circle class="cls-84" cx="41.02" cy="24.01" r="0.08"/><circle class="cls-84" cx="41.58" cy="23.45" r="0.08"/><circle class="cls-84" cx="41.02" cy="23.45" r="0.08"/><circle class="cls-84" cx="40.74" cy="23.73" r="0.08"/><circle class="cls-84" cx="41.3" cy="23.73" r="0.08"/><circle class="cls-84" cx="40.74" cy="23.17" r="0.08"/><circle class="cls-84" cx="41.3" cy="23.17" r="0.08"/><circle class="cls-84" cx="40.46" cy="24.01" r="0.08"/><circle class="cls-84" cx="40.46" cy="23.45" r="0.08"/><circle class="cls-84" cx="41.58" cy="22.9" r="0.08"/><circle class="cls-84" cx="41.02" cy="22.9" r="0.08"/><circle class="cls-84" cx="40.46" cy="22.9" r="0.08"/></g><g class="cls-82"><g class="cls-87"><circle class="cls-84" cx="41.58" cy="25.13" r="0.08"/><circle class="cls-84" cx="41.02" cy="25.13" r="0.08"/><circle class="cls-84" cx="41.58" cy="24.57" r="0.08"/><circle class="cls-84" cx="41.02" cy="24.57" r="0.08"/><circle class="cls-84" cx="40.74" cy="24.85" r="0.08"/><circle class="cls-84" cx="41.3" cy="24.85" r="0.08"/><circle class="cls-84" cx="40.74" cy="24.29" r="0.08"/><circle class="cls-84" cx="41.3" cy="24.29" r="0.08"/><circle class="cls-84" cx="40.46" cy="25.13" r="0.08"/><circle class="cls-84" cx="40.46" cy="24.57" r="0.08"/><circle class="cls-84" cx="41.58" cy="24.01" r="0.08"/><circle class="cls-84" cx="41.02" cy="24.01" r="0.08"/><circle class="cls-84" cx="40.46" cy="24.01" r="0.08"/></g><g class="cls-82"><g class="cls-88"><circle class="cls-84" cx="41.58" cy="26.25" r="0.08"/><circle class="cls-84" cx="41.02" cy="26.25" r="0.08"/><circle class="cls-84" cx="41.58" cy="25.69" r="0.08"/><circle class="cls-84" cx="41.02" cy="25.69" r="0.08"/><circle class="cls-84" cx="40.74" cy="25.97" r="0.08"/><circle class="cls-84" cx="41.3" cy="25.97" r="0.08"/><circle class="cls-84" cx="40.74" cy="25.41" r="0.08"/><circle class="cls-84" cx="41.3" cy="25.41" r="0.08"/><circle class="cls-84" cx="40.46" cy="26.25" r="0.08"/><circle class="cls-84" cx="40.46" cy="25.69" r="0.08"/><circle class="cls-84" cx="41.58" cy="25.13" r="0.08"/><circle class="cls-84" cx="41.02" cy="25.13" r="0.08"/><circle class="cls-84" cx="40.46" cy="25.13" r="0.08"/></g><g class="cls-82"><g class="cls-89"><circle class="cls-84" cx="41.58" cy="27.36" r="0.08"/><circle class="cls-84" cx="41.02" cy="27.36" r="0.08"/><circle class="cls-84" cx="41.58" cy="26.8" r="0.08"/><circle class="cls-84" cx="41.02" cy="26.8" r="0.08"/><circle class="cls-84" cx="40.74" cy="27.08" r="0.08"/><circle class="cls-84" cx="41.3" cy="27.08" r="0.08"/><circle class="cls-84" cx="40.74" cy="26.53" r="0.08"/><circle class="cls-84" cx="41.3" cy="26.53" r="0.08"/><circle class="cls-84" cx="40.46" cy="27.36" r="0.08"/><circle class="cls-84" cx="40.46" cy="26.8" r="0.08"/><circle class="cls-84" cx="41.58" cy="26.25" r="0.08"/><circle class="cls-84" cx="41.02" cy="26.25" r="0.08"/><circle class="cls-84" cx="40.46" cy="26.25" r="0.08"/></g><g class="cls-82"><g class="cls-90"><circle class="cls-84" cx="41.58" cy="28.48" r="0.08"/><circle class="cls-84" cx="41.02" cy="28.48" r="0.08"/><circle class="cls-84" cx="41.58" cy="27.92" r="0.08"/><circle class="cls-84" cx="41.02" cy="27.92" r="0.08"/><circle class="cls-84" cx="40.74" cy="28.2" r="0.08"/><circle class="cls-84" cx="41.3" cy="28.2" r="0.08"/><circle class="cls-84" cx="40.74" cy="27.64" r="0.08"/><circle class="cls-84" cx="41.3" cy="27.64" r="0.08"/><circle class="cls-84" cx="40.46" cy="28.48" r="0.08"/><circle class="cls-84" cx="40.46" cy="27.92" r="0.08"/><circle class="cls-84" cx="41.58" cy="27.36" r="0.08"/><circle class="cls-84" cx="41.02" cy="27.36" r="0.08"/><circle class="cls-84" cx="40.46" cy="27.36" r="0.08"/></g><g class="cls-82"><g class="cls-91"><circle class="cls-84" cx="41.58" cy="29.6" r="0.08"/><circle class="cls-84" cx="41.02" cy="29.6" r="0.08"/><circle class="cls-84" cx="41.58" cy="29.04" r="0.08"/><circle class="cls-84" cx="41.02" cy="29.04" r="0.08"/><circle class="cls-84" cx="40.74" cy="29.32" r="0.08"/><circle class="cls-84" cx="41.3" cy="29.32" r="0.08"/><circle class="cls-84" cx="40.74" cy="28.76" r="0.08"/><circle class="cls-84" cx="41.3" cy="28.76" r="0.08"/><circle class="cls-84" cx="40.46" cy="29.6" r="0.08"/><circle class="cls-84" cx="40.46" cy="29.04" r="0.08"/><circle class="cls-84" cx="41.58" cy="28.48" r="0.08"/><circle class="cls-84" cx="41.02" cy="28.48" r="0.08"/><circle class="cls-84" cx="40.46" cy="28.48" r="0.08"/></g><g class="cls-82"><g class="cls-92"><circle class="cls-84" cx="41.58" cy="30.71" r="0.08"/><circle class="cls-84" cx="41.02" cy="30.71" r="0.08"/><circle class="cls-84" cx="41.58" cy="30.16" r="0.08"/><circle class="cls-84" cx="41.02" cy="30.16" r="0.08"/><circle class="cls-84" cx="40.74" cy="30.44" r="0.08"/><circle class="cls-84" cx="41.3" cy="30.44" r="0.08"/><circle class="cls-84" cx="40.74" cy="29.88" r="0.08"/><circle class="cls-84" cx="41.3" cy="29.88" r="0.08"/><circle class="cls-84" cx="40.46" cy="30.71" r="0.08"/><circle class="cls-84" cx="40.46" cy="30.16" r="0.08"/><circle class="cls-84" cx="41.58" cy="29.6" r="0.08"/><circle class="cls-84" cx="41.02" cy="29.6" r="0.08"/><circle class="cls-84" cx="40.46" cy="29.6" r="0.08"/></g><g class="cls-82"><g class="cls-93"><circle class="cls-84" cx="41.58" cy="31.83" r="0.08"/><circle class="cls-84" cx="41.02" cy="31.83" r="0.08"/><circle class="cls-84" cx="41.58" cy="31.27" r="0.08"/><circle class="cls-84" cx="41.02" cy="31.27" r="0.08"/><circle class="cls-84" cx="40.74" cy="31.55" r="0.08"/><circle class="cls-84" cx="41.3" cy="31.55" r="0.08"/><circle class="cls-84" cx="40.74" cy="30.99" r="0.08"/><circle class="cls-84" cx="41.3" cy="30.99" r="0.08"/><circle class="cls-84" cx="40.46" cy="31.83" r="0.08"/><circle class="cls-84" cx="40.46" cy="31.27" r="0.08"/><circle class="cls-84" cx="41.58" cy="30.71" r="0.08"/><circle class="cls-84" cx="41.02" cy="30.71" r="0.08"/><circle class="cls-84" cx="40.46" cy="30.71" r="0.08"/></g><g class="cls-82"><g class="cls-94"><circle class="cls-84" cx="41.58" cy="32.95" r="0.08"/><circle class="cls-84" cx="41.02" cy="32.95" r="0.08"/><circle class="cls-84" cx="41.58" cy="32.39" r="0.08"/><circle class="cls-84" cx="41.02" cy="32.39" r="0.08"/><circle class="cls-84" cx="40.74" cy="32.67" r="0.08"/><circle class="cls-84" cx="41.3" cy="32.67" r="0.08"/><circle class="cls-84" cx="40.74" cy="32.11" r="0.08"/><circle class="cls-84" cx="41.3" cy="32.11" r="0.08"/><circle class="cls-84" cx="40.46" cy="32.95" r="0.08"/><circle class="cls-84" cx="40.46" cy="32.39" r="0.08"/><circle class="cls-84" cx="41.58" cy="31.83" r="0.08"/><circle class="cls-84" cx="41.02" cy="31.83" r="0.08"/><circle class="cls-84" cx="40.46" cy="31.83" r="0.08"/></g><g class="cls-82"><polygon class="cls-17" points="33.07 36.21 33.66 37.41 34.97 37.6 34.02 38.53 34.25 39.84 33.07 39.22 31.89 39.84 32.12 38.53 31.16 37.6 32.48 37.41 33.07 36.21"/><polygon class="cls-17" points="38.65 36.21 39.24 37.41 40.56 37.6 39.61 38.53 39.83 39.84 38.65 39.22 37.48 39.84 37.7 38.53 36.75 37.6 38.06 37.41 38.65 36.21"/><polygon class="cls-17" points="44.38 36.21 44.97 37.41 46.29 37.6 45.33 38.53 45.56 39.84 44.38 39.22 43.2 39.84 43.43 38.53 42.47 37.6 43.79 37.41 44.38 36.21"/><polygon class="cls-17" points="49.83 36.21 50.42 37.41 51.73 37.6 50.78 38.53 51.01 39.84 49.83 39.22 48.65 39.84 48.87 38.53 47.92 37.6 49.24 37.41 49.83 36.21"/><rect class="cls-81" x="60.84" width="40.64" height="59.69"/></g></g></g></g></g></g></g></g></g></g></g></g><rect class="cls-1" x="40.42" y="32.77" width="1.26" height="1.26"/><path class="cls-1" d="M39.35,71.07a2.31,2.31,0,0,1,2.31-2.38A2.22,2.22,0,0,1,44,71a2.29,2.29,0,0,1-2.31,2.31A2.45,2.45,0,0,1,39.35,71.07Z" transform="translate(-6.4 -47.95)"/><path class="cls-1" d="M51.1,71.07a2.31,2.31,0,0,1,2.31-2.38A2.22,2.22,0,0,1,55.73,71a2.29,2.29,0,0,1-2.31,2.31A2.45,2.45,0,0,1,51.1,71.07Z" transform="translate(-6.4 -47.95)"/></svg>