<svg id="Layer_1" data-name="Layer 1" xmlns="http://www.w3.org/2000/svg" viewBox="0 0 110.21 127.21"><defs><style>.cls-1{fill:#b8e0d5;}.cls-2{fill:#8acfbe;}.cls-3{fill:#006075;}.cls-4{fill:none;}.cls-5{fill:#049daf;}.cls-6{fill:#55c0a8;}</style></defs><title>student_planner</title><rect class="cls-1" x="11.38" y="37.52" width="81.75" height="61.31"/><rect class="cls-2" x="51.89" y="37.52" width="41.24" height="61.31"/><rect class="cls-3" x="17.28" y="55.38" width="8.1" height="7.36"/><rect class="cls-3" x="17.28" y="69.37" width="8.1" height="7.36"/><rect class="cls-3" x="17.28" y="84.84" width="8.1" height="7.36"/><rect class="cls-3" x="32.74" y="55.38" width="8.1" height="7.36"/><rect class="cls-3" x="32.74" y="69.37" width="8.1" height="7.36"/><rect class="cls-3" x="32.74" y="84.84" width="8.1" height="7.36"/><rect class="cls-3" x="48.21" y="55.38" width="8.1" height="7.36"/><rect class="cls-3" x="48.21" y="69.37" width="8.1" height="7.36"/><rect class="cls-3" x="48.21" y="84.84" width="8.1" height="7.36"/><rect class="cls-3" x="63.67" y="55.38" width="8.1" height="7.36"/><rect class="cls-3" x="63.67" y="69.37" width="8.1" height="7.36"/><rect class="cls-3" x="63.67" y="84.84" width="8.1" height="7.36"/><rect class="cls-3" x="78.4" y="55.38" width="8.84" height="7.36"/><rect class="cls-3" x="78.4" y="69.37" width="8.84" height="7.36"/><rect class="cls-3" x="78.4" y="84.84" width="8.84" height="7.36"/><line class="cls-4" x1="22.75" y1="38" x2="81.59" y2="38"/><path class="cls-5" d="M38.14,55a4.74,4.74,0,0,1-4.75-4.72,4.69,4.69,0,0,1,4.68-4.72h0.06A4.72,4.72,0,0,1,38.14,55Z" transform="translate(-15.33 -12.27)"/><path class="cls-5" d="M77.38,55H77.23a4.72,4.72,0,1,1,0-9.43h0.14A4.72,4.72,0,1,1,77.38,55ZM57.76,55H57.61a4.72,4.72,0,1,1,0-9.43h0.14A4.72,4.72,0,1,1,57.76,55Z" transform="translate(-15.33 -12.27)"/><path class="cls-5" d="M96.91,55a4.74,4.74,0,0,1-4.75-4.72,4.69,4.69,0,0,1,4.68-4.72h0.06A4.72,4.72,0,0,1,96.91,55Z" transform="translate(-15.33 -12.27)"/><path class="cls-1" d="M99.69,81.25h3.12L100,85.58l3,4.57H99.72l-1.62-2.79-1.81,2.79H93.16l3-4.55-2.84-4.34h3.27l1.48,2.56Z" transform="translate(-15.33 -12.27)"/><rect class="cls-6" x="17.28" y="47.28" width="27.25" height="4.42"/><path class="cls-2" d="M19.93,21.48a4.61,4.61,0,1,1,4.61-4.61A4.61,4.61,0,0,1,19.93,21.48Zm0-8.21a3.61,3.61,0,1,0,3.61,3.61A3.61,3.61,0,0,0,19.93,13.27Z" transform="translate(-15.33 -12.27)"/><path class="cls-2" d="M120.93,56.48a4.61,4.61,0,1,1,4.61-4.61A4.61,4.61,0,0,1,120.93,56.48Zm0-8.21a3.61,3.61,0,1,0,3.61,3.61A3.61,3.61,0,0,0,120.93,48.27Z" transform="translate(-15.33 -12.27)"/><path class="cls-2" d="M47.93,139.48a4.61,4.61,0,1,1,4.61-4.61A4.61,4.61,0,0,1,47.93,139.48Zm0-8.21a3.61,3.61,0,1,0,3.61,3.61A3.61,3.61,0,0,0,47.93,131.27Z" transform="translate(-15.33 -12.27)"/></svg>