<svg xmlns="http://www.w3.org/2000/svg" viewBox="0 0 68.42 81.49"><defs><style>.cls-1{fill:#9872b2;}.cls-2{fill:#60c4b6;}.cls-3{fill:#4dc1ee;}</style></defs><title>Top Bug - (LogoMark)-01</title><g id="Layer_1" data-name="Layer 1"><path class="cls-1" d="M34.17,49a1.76,1.76,0,0,0-1.72,1.81A28.8,28.8,0,0,1,21.63,74.15a1.76,1.76,0,0,0-.27,2.48l.13.15a1.77,1.77,0,0,0,2.35.12A32.26,32.26,0,0,0,36,50.72,1.76,1.76,0,0,0,34.17,49Z"/><path class="cls-2" d="M28.82,55.28a1.77,1.77,0,0,0-3.51-.46A21.91,21.91,0,0,1,15.6,70.1a1.78,1.78,0,0,0-.51,2.45,2.15,2.15,0,0,0,.23.28,1.77,1.77,0,0,0,2.22.23A25.54,25.54,0,0,0,28.82,55.28Z"/><path class="cls-3" d="M40.36,59a1.78,1.78,0,0,0,2-1.48C43,53.13,44,46.56,38.55,43.36a8.66,8.66,0,0,0-12.89,6.43,1.73,1.73,0,0,0,.5,1.45,1.83,1.83,0,0,0,1.05.51,1.77,1.77,0,0,0,2-1.56,4.91,4.91,0,0,1,2.77-3.89,5,5,0,0,1,4.83.11c3.15,1.84,2.84,5.69,2.11,10.54A1.76,1.76,0,0,0,40.36,59Z"/><path class="cls-2" d="M40,60.41a1.75,1.75,0,0,0-2.19,1.2,35.88,35.88,0,0,1-8.74,14.94,1.75,1.75,0,0,0,0,2.48v0a1.77,1.77,0,0,0,2.5,0,39.35,39.35,0,0,0,9.6-16.41A1.76,1.76,0,0,0,40,60.41Z"/><path class="cls-3" d="M21.68,56.56a20.21,20.21,0,0,0,.57-4.82c0-.73.06-1.42.12-2.12a11.94,11.94,0,0,1,1.65-5,1.77,1.77,0,0,0-3-1.82,15.29,15.29,0,0,0-2.13,6.46c-.08.8-.11,1.58-.14,2.33a17.69,17.69,0,0,1-.45,4A15.43,15.43,0,0,1,11,64.91a1.77,1.77,0,0,0-.67,2.41,1.82,1.82,0,0,0,.29.38,1.77,1.77,0,0,0,2.12.29A19,19,0,0,0,21.68,56.56Z"/><path class="cls-2" d="M43.65,43.57a1.77,1.77,0,1,0,2.83-2.12,15.22,15.22,0,0,0-10.36-5.9,15.42,15.42,0,0,0-11.65,3.26,1.78,1.78,0,0,0-.26,2.49l.12.13a1.78,1.78,0,0,0,2.37.12,12,12,0,0,1,9-2.5A11.68,11.68,0,0,1,43.65,43.57Z"/><path class="cls-3" d="M48.8,46.08a1.77,1.77,0,0,0-3.43.86c2.22,8.92-.46,19.71-7.35,29.59a1.76,1.76,0,0,0,.2,2.26,1.59,1.59,0,0,0,.24.2,1.78,1.78,0,0,0,2.46-.44C48.4,67.83,51.27,56,48.8,46.08Z"/><path class="cls-2" d="M15.5,51a1.76,1.76,0,0,0-3.52.24A8.47,8.47,0,0,1,7.79,58.9a1.75,1.75,0,0,0-.63,2.41,1.41,1.41,0,0,0,.27.36A1.77,1.77,0,0,0,9.57,62,12.07,12.07,0,0,0,15.5,51Z"/><path class="cls-1" d="M35.33,28.66A22.48,22.48,0,0,0,12.49,46,1.73,1.73,0,0,0,13,47.59a1.79,1.79,0,0,0,.86.48,1.77,1.77,0,0,0,2.11-1.35A18.93,18.93,0,0,1,35.18,32.19a1.77,1.77,0,0,0,.15-3.53Z"/><path class="cls-3" d="M44.44,31.05a22,22,0,0,0-4-1.56,1.77,1.77,0,1,0-1,3.4,18.15,18.15,0,0,1,3.32,1.3c10.6,5.41,11.47,18.6,8.75,29.14A1.74,1.74,0,0,0,52,65a1.68,1.68,0,0,0,.81.46A1.76,1.76,0,0,0,55,64.21C58.06,52.35,56.89,37.4,44.44,31.05Z"/><path class="cls-1" d="M52.45,66.76a1.77,1.77,0,0,0-2.26,1.07c-.54,1.52-1.15,3-1.81,4.46a1.76,1.76,0,0,0,.35,2,1.71,1.71,0,0,0,.51.35,1.77,1.77,0,0,0,2.34-.86c.71-1.53,1.36-3.13,1.94-4.75A1.77,1.77,0,0,0,52.45,66.76Z"/><path class="cls-3" d="M8.76,52.55c0-.37,0-.74,0-1.12,0,0,0-.06,0-.1a25.49,25.49,0,0,1,5.85-16.84,1.77,1.77,0,0,0-2.72-2.26,29.08,29.08,0,0,0-6.67,19.3s0,0,0,.08c0,.4,0,.79.06,1.19a1.76,1.76,0,0,0,3.52-.25Z"/><path class="cls-1" d="M63.24,49.82c0-.35,0-.7-.06-1a1.76,1.76,0,0,0-3.52.24c0,.36,0,.73.05,1.09,0,0,0,0,0,.06a25.92,25.92,0,0,1-.46,5.5,1.76,1.76,0,0,0,.48,1.59,1.78,1.78,0,0,0,3-.91A29.89,29.89,0,0,0,63.26,50C63.26,49.94,63.24,49.88,63.24,49.82Z"/><path class="cls-2" d="M13.66,5.48a8.51,8.51,0,0,1,7.55,4.2A1.77,1.77,0,0,0,24.26,7.9,12,12,0,0,0,13.57,2a1.76,1.76,0,0,0-1.72,1.81A1.72,1.72,0,0,0,12.36,5,1.78,1.78,0,0,0,13.66,5.48Z"/><path class="cls-2" d="M44.67,10.31a1.76,1.76,0,0,0,2.42-.63,8.51,8.51,0,0,1,7.55-4.2A1.77,1.77,0,1,0,54.73,2,12,12,0,0,0,44,7.9,1.77,1.77,0,0,0,44.32,10,1.91,1.91,0,0,0,44.67,10.31Z"/><path class="cls-2" d="M61.1,45.89a1.76,1.76,0,0,0,1.27-2.15c-1.87-7.37-7.55-14.48-13.7-18.39,0-.22,0-1.72,0-1.72a13.82,13.82,0,0,0-4-10A14.56,14.56,0,0,0,33.56,9.33c-8.5.22-14.73,7.44-14.51,15.94,0,0,.13,1,0,1.08a12.61,12.61,0,0,0-3.28,2.29,1.8,1.8,0,0,0-.38,2.49s0,.08,0,.11a1.71,1.71,0,0,0,2.35.1,25.71,25.71,0,0,1,14.82-6A25.83,25.83,0,0,1,59,44.61,1.76,1.76,0,0,0,61.1,45.89ZM27.42,20.27a1.78,1.78,0,1,1,1.77-1.78A1.78,1.78,0,0,1,27.42,20.27Zm12.58,0a1.78,1.78,0,1,1,1.77-1.78A1.78,1.78,0,0,1,40,20.27Z"/></g></svg>