<svg id="Layer_1" data-name="Layer 1" xmlns="http://www.w3.org/2000/svg" viewBox="0 0 345.67 105.33"><defs><style>.cls-1{fill:#9872b2;}.cls-2{fill:#60c4b6;}.cls-3{fill:#4dc1ee;}.cls-4{fill:#173851;}</style></defs><title>Top Bug - Logo Dark (Full)</title><path class="cls-1" d="M45.83,61.92a1.76,1.76,0,0,0-1.72,1.81A28.77,28.77,0,0,1,33.29,87.07,1.76,1.76,0,0,0,33,89.55l.13.15a1.77,1.77,0,0,0,2.35.12A32.26,32.26,0,0,0,47.64,63.64,1.76,1.76,0,0,0,45.83,61.92Z"/><path class="cls-2" d="M40.48,68.2A1.77,1.77,0,0,0,37,67.74,21.91,21.91,0,0,1,27.26,83a1.78,1.78,0,0,0-.51,2.45,2.15,2.15,0,0,0,.23.28A1.77,1.77,0,0,0,29.2,86,25.51,25.51,0,0,0,40.48,68.2Z"/><path class="cls-3" d="M52,71.88a1.77,1.77,0,0,0,2-1.48c.66-4.35,1.66-10.92-3.81-14.12a8.66,8.66,0,0,0-12.9,6.43,1.76,1.76,0,0,0,.51,1.45,1.72,1.72,0,0,0,1,.51,1.77,1.77,0,0,0,2-1.56,4.9,4.9,0,0,1,2.78-3.89,5,5,0,0,1,4.82.11c3.16,1.84,2.85,5.69,2.11,10.54A1.77,1.77,0,0,0,52,71.88Z"/><path class="cls-2" d="M51.7,73.33a1.77,1.77,0,0,0-2.19,1.2,35.88,35.88,0,0,1-8.74,14.94,1.77,1.77,0,0,0,0,2.48v0a1.77,1.77,0,0,0,2.5,0,39.35,39.35,0,0,0,9.6-16.41A1.75,1.75,0,0,0,51.7,73.33Z"/><path class="cls-3" d="M33.34,69.48a20.77,20.77,0,0,0,.58-4.82c0-.73,0-1.42.12-2.12a11.78,11.78,0,0,1,1.64-5,1.77,1.77,0,0,0-3-1.82,15.43,15.43,0,0,0-2.13,6.46c-.08.8-.11,1.58-.13,2.33a17.15,17.15,0,0,1-.46,4,15.4,15.4,0,0,1-7.26,9.28A1.77,1.77,0,0,0,22,80.24a1.82,1.82,0,0,0,.29.38,1.77,1.77,0,0,0,2.12.29A19,19,0,0,0,33.34,69.48Z"/><path class="cls-2" d="M55.32,56.49a1.77,1.77,0,1,0,2.83-2.12,15.26,15.26,0,0,0-10.37-5.9,15.42,15.42,0,0,0-11.65,3.26,1.77,1.77,0,0,0-.25,2.49l.12.13a1.76,1.76,0,0,0,2.36.12,12,12,0,0,1,9-2.5A11.72,11.72,0,0,1,55.32,56.49Z"/><path class="cls-3" d="M60.46,59a1.77,1.77,0,0,0-3.43.86c2.23,8.92-.45,19.71-7.35,29.59a1.78,1.78,0,0,0,.2,2.26,1.59,1.59,0,0,0,.24.2,1.77,1.77,0,0,0,2.46-.44C60.06,80.75,62.93,68.92,60.46,59Z"/><path class="cls-2" d="M27.16,63.91a1.76,1.76,0,1,0-3.52.25,8.46,8.46,0,0,1-4.19,7.66,1.77,1.77,0,0,0-.63,2.42,1.6,1.6,0,0,0,.28.35,1.76,1.76,0,0,0,2.14.28A12.08,12.08,0,0,0,27.16,63.91Z"/><path class="cls-1" d="M47,41.58a22.5,22.5,0,0,0-22.85,17.3,1.78,1.78,0,0,0,.48,1.63,1.82,1.82,0,0,0,.87.48,1.76,1.76,0,0,0,2.1-1.35A18.93,18.93,0,0,1,46.84,45.11,1.77,1.77,0,0,0,47,41.58Z"/><path class="cls-3" d="M56.1,44a22,22,0,0,0-4-1.56,1.77,1.77,0,0,0-1,3.4,17.87,17.87,0,0,1,3.32,1.3c10.6,5.41,11.47,18.6,8.75,29.14a1.75,1.75,0,0,0,.46,1.69,1.72,1.72,0,0,0,.81.46,1.76,1.76,0,0,0,2.15-1.27C69.72,65.27,68.56,50.32,56.1,44Z"/><path class="cls-1" d="M64.11,79.68a1.75,1.75,0,0,0-2.25,1.07c-.54,1.52-1.16,3-1.82,4.46a1.76,1.76,0,0,0,.35,2,2,2,0,0,0,.51.35,1.77,1.77,0,0,0,2.35-.86c.71-1.53,1.36-3.13,1.94-4.75A1.78,1.78,0,0,0,64.11,79.68Z"/><path class="cls-3" d="M20.43,65.47c0-.37-.05-.74-.06-1.12,0,0,0-.06,0-.1a25.49,25.49,0,0,1,5.85-16.84A1.76,1.76,0,0,0,26,44.92a1.77,1.77,0,0,0-2.49.23,29,29,0,0,0-6.66,19.3.24.24,0,0,0,0,.08c0,.4,0,.79,0,1.19a1.71,1.71,0,0,0,.52,1.12,1.73,1.73,0,0,0,1.37.51A1.76,1.76,0,0,0,20.43,65.47Z"/><path class="cls-1" d="M74.9,62.74c0-.35,0-.7-.05-1.05a1.77,1.77,0,0,0-3.53.24c0,.36.05.73.06,1.09,0,0,0,0,0,.06a25.92,25.92,0,0,1-.46,5.5,1.77,1.77,0,0,0,3.47.68,29.25,29.25,0,0,0,.52-6.34A1.1,1.1,0,0,0,74.9,62.74Z"/><path class="cls-2" d="M25.32,18.4a8.5,8.5,0,0,1,7.55,4.2,1.77,1.77,0,0,0,3.05-1.78,12,12,0,0,0-10.69-6,1.76,1.76,0,0,0-1.72,1.81,1.73,1.73,0,0,0,.52,1.2A1.7,1.7,0,0,0,25.32,18.4Z"/><path class="cls-2" d="M56.34,23.23a1.75,1.75,0,0,0,2.41-.63,8.51,8.51,0,0,1,7.55-4.2,1.77,1.77,0,1,0,.1-3.53,12,12,0,0,0-10.69,6A1.75,1.75,0,0,0,56,23,1.41,1.41,0,0,0,56.34,23.23Z"/><path class="cls-2" d="M72.77,58.81A1.77,1.77,0,0,0,74,56.66c-1.88-7.37-7.56-14.48-13.7-18.39,0-.22,0-1.72,0-1.72a13.81,13.81,0,0,0-4-10,14.56,14.56,0,0,0-11.07-4.27c-8.5.22-14.74,7.44-14.52,15.94,0,0,.13,1,0,1.08a12.61,12.61,0,0,0-3.28,2.29A1.8,1.8,0,0,0,27,44.05s0,.08,0,.11a1.71,1.71,0,0,0,2.35.1A25.49,25.49,0,0,1,70.63,57.53,1.76,1.76,0,0,0,72.77,58.81ZM39.08,33.19a1.78,1.78,0,1,1,1.77-1.78A1.78,1.78,0,0,1,39.08,33.19Zm12.58,0a1.78,1.78,0,1,1,1.77-1.78A1.78,1.78,0,0,1,51.66,33.19Z"/><path class="cls-4" d="M114.17,24.67h-6.42V46.25a2.19,2.19,0,0,1-2.22,2.22,2.22,2.22,0,0,1-2.23-2.22V24.67H96.92a2.25,2.25,0,0,1-2.22-2.26,2.19,2.19,0,0,1,2.22-2.23h17.25a2.22,2.22,0,0,1,2.22,2.23A2.28,2.28,0,0,1,114.17,24.67Z"/><path class="cls-4" d="M145.16,23.7a14.84,14.84,0,0,1,0,20.44,13.22,13.22,0,0,1-9.65,4.33,13.62,13.62,0,0,1-9.9-4.33,15.06,15.06,0,0,1,0-20.44,13.46,13.46,0,0,1,9.9-4.32A13.06,13.06,0,0,1,145.16,23.7Zm-.52,10.22a10.45,10.45,0,0,0-2.75-7.07A8.71,8.71,0,0,0,135.51,24,8.8,8.8,0,0,0,129,26.85a10.26,10.26,0,0,0-2.75,7.07A10.07,10.07,0,0,0,129,41a8.64,8.64,0,0,0,12.93,0A10.25,10.25,0,0,0,144.64,33.92Z"/><path class="cls-4" d="M168.68,37.48h-5v8.77a2.25,2.25,0,0,1-4.49,0V22.41a2.22,2.22,0,0,1,2.23-2.23h7.23a8.65,8.65,0,1,1,0,17.3Zm-5-4.49h5a4.16,4.16,0,1,0,0-8.32h-5Z"/><path class="cls-2" d="M184.8,46.25V22.41A2.22,2.22,0,0,1,187,20.18h5.74a7.68,7.68,0,0,1,6.14,12.29,8.65,8.65,0,0,1-4.56,16h-7.16a0,0,0,0,1,0,0c-.08,0-.08,0-.12,0A2.24,2.24,0,0,1,184.8,46.25Zm4.49-15.12h3.47A3.24,3.24,0,0,0,196,27.86a3.17,3.17,0,0,0-3.19-3.19h-3.47Zm0,12.85h5.05a4.18,4.18,0,0,0,0-8.36h-5.05Z"/><path class="cls-2" d="M222.54,48.47a11.66,11.66,0,0,1-11.68-11.68V22.41a2.19,2.19,0,0,1,2.22-2.23,2.25,2.25,0,0,1,2.27,2.23V36.79a7.19,7.19,0,0,0,14.38,0V22.41A2.23,2.23,0,0,1,232,20.18a2.19,2.19,0,0,1,2.23,2.23V36.79A11.69,11.69,0,0,1,222.54,48.47Z"/><path class="cls-2" d="M242.05,34A14.73,14.73,0,0,1,257,19.38a15,15,0,0,1,9.22,3.15,2.32,2.32,0,0,1,.44,3.27,2.35,2.35,0,0,1-3.27.36A10.53,10.53,0,0,0,257,24a10,10,0,0,0-7.27,2.95,9.58,9.58,0,0,0,0,14,10,10,0,0,0,7.27,3,11.16,11.16,0,0,0,5.54-1.53V36.79h-5.78a2.33,2.33,0,0,1-2.3-2.3,2.27,2.27,0,0,1,2.3-2.26h8a2.28,2.28,0,0,1,2.35,2.26v8.93a3.42,3.42,0,0,1-.13.68c0,.09,0,.13-.08.21v0a2,2,0,0,1-.76,1A14.93,14.93,0,0,1,257,48.47,14.69,14.69,0,0,1,242.05,34Z"/><path class="cls-4" d="M96.88,88.6V64.76a2.19,2.19,0,0,1,2.22-2.22h13.21a2.24,2.24,0,0,1,2.23,2.22A2.28,2.28,0,0,1,112.31,67h-11v7.4h9.42a2.24,2.24,0,0,1,0,4.48h-9.42v7.44h11a2.24,2.24,0,0,1,0,4.48H99.22c-.08,0-.08,0-.08,0l0,0A2.21,2.21,0,0,1,96.88,88.6Z"/><path class="cls-4" d="M122.86,88.6V64.76a2.19,2.19,0,0,1,2.22-2.22h4.77a14.14,14.14,0,0,1,0,28.28h-4.77A2.21,2.21,0,0,1,122.86,88.6Zm4.48-2.26h2.51a9.66,9.66,0,0,0,0-19.32h-2.51Z"/><path class="cls-4" d="M163.22,90.82a11.65,11.65,0,0,1-11.67-11.67V64.76a2.19,2.19,0,0,1,2.22-2.22A2.25,2.25,0,0,1,156,64.76V79.15a7.19,7.19,0,0,0,14.38,0V64.76a2.23,2.23,0,0,1,2.27-2.22,2.19,2.19,0,0,1,2.22,2.22V79.15A11.68,11.68,0,0,1,163.22,90.82Z"/><path class="cls-4" d="M182.74,76.28a14.84,14.84,0,0,1,14.83-14.55,15.1,15.1,0,0,1,9.33,3.15,2.41,2.41,0,0,1,.41,3.24,2.38,2.38,0,0,1-3.24.44,10,10,0,0,0-6.5-2.22,10.66,10.66,0,0,0-7.27,2.91,9.94,9.94,0,0,0-3,7,9.83,9.83,0,0,0,3,7,10.7,10.7,0,0,0,7.27,2.91,10.13,10.13,0,0,0,6.5-2.23,2.47,2.47,0,0,1,3.24.45,2.39,2.39,0,0,1-.41,3.23,15.1,15.1,0,0,1-9.33,3.15A14.78,14.78,0,0,1,182.74,76.28Z"/><path class="cls-4" d="M229.37,84.16h-9.82l-2,5.25a2.27,2.27,0,0,1-2.1,1.41,2.35,2.35,0,0,1-.77-.12,2.29,2.29,0,0,1-1.33-2.91L222.3,64a2.25,2.25,0,0,1,2.14-1.41A2.21,2.21,0,0,1,226.58,64l8.93,23.8a2.29,2.29,0,0,1-1.34,2.91,2.26,2.26,0,0,1-2.82-1.29Zm-1.66-4.45L224.44,71l-3.28,8.69Z"/><path class="cls-4" d="M256.32,67h-6.43V88.6a2.19,2.19,0,0,1-2.22,2.22,2.21,2.21,0,0,1-2.22-2.22V67h-6.39a2.25,2.25,0,0,1-2.22-2.26,2.19,2.19,0,0,1,2.22-2.22h17.26a2.21,2.21,0,0,1,2.22,2.22A2.28,2.28,0,0,1,256.32,67Z"/><path class="cls-4" d="M264.48,64.76a2.19,2.19,0,0,1,2.22-2.22A2.25,2.25,0,0,1,269,64.76V88.6a2.25,2.25,0,0,1-2.26,2.22,2.19,2.19,0,0,1-2.22-2.22Z"/><path class="cls-4" d="M297.81,66.05a14.85,14.85,0,0,1,0,20.45,13.21,13.21,0,0,1-9.65,4.32,13.61,13.61,0,0,1-9.9-4.32,15.07,15.07,0,0,1,0-20.45,13.5,13.5,0,0,1,9.9-4.32A13.1,13.1,0,0,1,297.81,66.05Zm-.52,10.23a10.43,10.43,0,0,0-2.75-7.07,8.71,8.71,0,0,0-6.38-2.87,8.8,8.8,0,0,0-6.55,2.87,10.25,10.25,0,0,0-2.75,7.07,10.11,10.11,0,0,0,2.75,7,8.64,8.64,0,0,0,12.93,0A10.29,10.29,0,0,0,297.29,76.28Z"/><path class="cls-4" d="M315.27,88.6a2.21,2.21,0,1,1-4.41,0V65.08a2.19,2.19,0,0,1,.89-1.85,2.22,2.22,0,0,1,3.07.48l13.05,18.06V65.12a2.2,2.2,0,0,1,2.19-2.18,2.23,2.23,0,0,1,2.22,2.18V88.6a2.24,2.24,0,0,1-2.22,2.22A2.17,2.17,0,0,1,328.4,90a1.06,1.06,0,0,1-.2-.24L315.27,71.83Z"/></svg>