<?xml version="1.0" encoding="utf-8"?>
<!-- Generator: Adobe Illustrator 19.2.1, SVG Export Plug-In . SVG Version: 6.00 Build 0)  -->
<svg version="1.1" id="Layer_1" xmlns="http://www.w3.org/2000/svg" xmlns:xlink="http://www.w3.org/1999/xlink" x="0px" y="0px"
	 viewBox="0 0 35.2 35.7" style="enable-background:new 0 0 35.2 35.7;" xml:space="preserve">
<style type="text/css">
	.st0{fill:#B8E0D5;}
	.st1{fill:#8ACFBE;}
	.st2{fill:url(#SVGID_1_);}
	.st3{fill:#009584;}
	.st4{fill:#00797C;}
</style>
<g>
	<g>
		<circle class="st0" cx="17.3" cy="19.5" r="14.8"/>
	</g>
	<g>
		<path class="st1" d="M32.4,19.5c0,8.2-6.8,14.8-14.8,14.8V4.7C25.6,4.7,32.4,11.3,32.4,19.5z"/>
	</g>
	<g>
		
			<linearGradient id="SVGID_1_" gradientUnits="userSpaceOnUse" x1="-6.1102" y1="18.3269" x2="21.2085" y2="18.3269" gradientTransform="matrix(0.9999 -1.380000e-002 -1.380000e-002 -0.9999 9.8532 37.4677)">
			<stop  offset="0" style="stop-color:#00797C"/>
			<stop  offset="0.8438" style="stop-color:#00A5DC"/>
			<stop  offset="1" style="stop-color:#00ADEE"/>
		</linearGradient>
		<path class="st2" d="M17.2,32.7c-1,0-1.7-0.8-1.7-1.8l0,0c0-1,0.8-1.8,1.7-1.8l0,0c1,0,1.8,0.8,1.8,1.8l0,0
			C18.9,31.9,18.1,32.7,17.2,32.7L17.2,32.7L17.2,32.7z M10.3,30.8c-0.8-0.5-1.1-1.5-0.6-2.4l0,0c0.5-0.8,1.6-1.1,2.4-0.6l0,0
			c0.8,0.5,1.1,1.6,0.6,2.4l0,0c-0.3,0.6-0.9,0.9-1.5,0.9l0,0C10.9,31.1,10.6,31,10.3,30.8z M21.7,30.2c-0.5-0.8-0.2-1.9,0.6-2.4
			l0,0c0.8-0.5,1.9-0.2,2.4,0.6l0,0c0.5,0.8,0.2,1.9-0.6,2.4l0,0c-0.3,0.2-0.6,0.2-0.9,0.2l0,0C22.6,31.1,22,30.8,21.7,30.2z
			 M5.3,25.8c-0.5-0.8-0.2-1.9,0.6-2.4l0,0c0.8-0.5,1.9-0.2,2.4,0.7l0,0c0.5,0.8,0.2,1.9-0.7,2.4l0,0c-0.3,0.2-0.6,0.2-0.9,0.2l0,0
			C6.2,26.7,5.6,26.4,5.3,25.8z M26.7,26.4c-0.8-0.5-1.1-1.5-0.7-2.4l0,0c0.5-0.8,1.5-1.1,2.4-0.7l0,0c0.8,0.5,1.1,1.5,0.7,2.4l0,0
			c0,0,0,0,0,0l0,0c-0.3,0.6-0.9,0.9-1.5,0.9l0,0C27.2,26.6,26.9,26.6,26.7,26.4z M5.2,20.7c-1,0-1.7-0.8-1.7-1.8l0,0l0,0l0,0
			c0-1,0.8-1.7,1.8-1.7l0,0c1,0,1.7,0.8,1.7,1.8l0,0C7,19.9,6.2,20.7,5.2,20.7L5.2,20.7C5.2,20.7,5.2,20.7,5.2,20.7z M27.3,18.9
			c0-1,0.8-1.8,1.7-1.8l0,0c1,0,1.8,0.8,1.8,1.7l0,0c0,1-0.8,1.8-1.7,1.8l0,0h0l0,0C28.1,20.6,27.3,19.8,27.3,18.9z M26.1,14.2
			c-0.5-0.9-0.1-1.9,0.7-2.4l0,0c0.8-0.5,1.9-0.1,2.4,0.7l0,0c0.5,0.9,0.1,1.9-0.7,2.4l0,0c-0.3,0.1-0.5,0.2-0.8,0.2l0,0
			C27,15.1,26.4,14.8,26.1,14.2z M6,14.4c-0.8-0.5-1.1-1.6-0.6-2.4l0,0c0.5-0.8,1.6-1.1,2.4-0.6l0,0c0.8,0.5,1.1,1.6,0.6,2.4l0,0
			c-0.3,0.5-0.9,0.9-1.5,0.9l0,0C6.6,14.7,6.3,14.6,6,14.4z M22.5,10.4c-0.8-0.5-1.1-1.6-0.6-2.4l0,0c0.5-0.8,1.6-1.1,2.4-0.6l0,0
			c0.8,0.5,1.1,1.6,0.6,2.4l0,0c-0.3,0.5-0.9,0.8-1.5,0.8l0,0C23.1,10.6,22.7,10.5,22.5,10.4z M9.8,9.5c-0.5-0.8-0.2-1.9,0.7-2.4
			l0,0c0.9-0.5,1.9-0.2,2.4,0.7l0,0c0.5,0.8,0.2,1.9-0.7,2.4l0,0c-0.3,0.1-0.6,0.2-0.9,0.2l0,0C10.8,10.4,10.2,10,9.8,9.5z
			 M17.4,8.9c-1,0-1.7-0.8-1.7-1.8l0,0c0-1,0.8-1.7,1.8-1.7l0,0c1,0,1.7,0.8,1.7,1.8l0,0C19.1,8.1,18.4,8.9,17.4,8.9L17.4,8.9
			C17.4,8.9,17.4,8.9,17.4,8.9z"/>
	</g>
	<g>
		<path class="st3" d="M15.8,19.5l1.6-14.7l1.6,14.7c0.1,0.9-0.5,1.6-1.4,1.7c-0.9,0.1-1.6-0.5-1.7-1.4
			C15.7,19.7,15.7,19.6,15.8,19.5z"/>
	</g>
	<g>
		<path class="st4" d="M18.1,21.2l-5.5,2.9l2.9-5.5c0.5-0.9,1.7-1.3,2.6-0.8s1.3,1.7,0.8,2.6C18.8,20.7,18.5,21,18.1,21.2z"/>
	</g>
	<g>
		<rect x="14.6" y="0.7" class="st0" width="6" height="2"/>
	</g>
	<g>
		<rect x="17.6" y="0.7" class="st1" width="3" height="2"/>
	</g>
</g>
</svg>
