<?xml version="1.0" encoding="utf-8"?>
<!-- Generator: Adobe Illustrator 17.0.0, SVG Export Plug-In . SVG Version: 6.00 Build 0)  -->
<!DOCTYPE svg PUBLIC "-//W3C//DTD SVG 1.1//EN" "http://www.w3.org/Graphics/SVG/1.1/DTD/svg11.dtd">
<svg version="1.1" id="Layer_1" xmlns="http://www.w3.org/2000/svg" xmlns:xlink="http://www.w3.org/1999/xlink" x="0px" y="0px"
	 width="47px" height="47px" viewBox="0 0 47 47" enable-background="new 0 0 47 47" xml:space="preserve">
<circle fill="#FB943B" cx="13.849" cy="11.917" r="5.445"/>
<circle opacity="0.8" fill="#FF0000" cx="13.178" cy="33.466" r="4.689"/>
<linearGradient id="SVGID_1_" gradientUnits="userSpaceOnUse" x1="28.5149" y1="24.6136" x2="43.3425" y2="24.6136">
	<stop  offset="0" style="stop-color:#F1F1F2"/>
	<stop  offset="0.1167" style="stop-color:#B9E8D4"/>
	<stop  offset="0.2346" style="stop-color:#88E0BA"/>
	<stop  offset="0.3559" style="stop-color:#5FD9A4"/>
	<stop  offset="0.4784" style="stop-color:#3CD392"/>
	<stop  offset="0.6026" style="stop-color:#22CF84"/>
	<stop  offset="0.7292" style="stop-color:#0FCB7A"/>
	<stop  offset="0.8597" style="stop-color:#04CA74"/>
	<stop  offset="1" style="stop-color:#00C972"/>
</linearGradient>
<circle fill="url(#SVGID_1_)" cx="35.929" cy="24.614" r="7.412"/>
<line fill="none" stroke="#F7931E" stroke-width="1.1409" stroke-miterlimit="10" x1="20.465" y1="14.978" x2="28.201" y2="19.446"/>
<line fill="none" stroke="#FF0000" stroke-width="1.1409" stroke-miterlimit="10" x1="20.169" y1="31.34" x2="28.016" y2="28.207"/>
<path opacity="0.1" fill="#004B6F" d="M41.33,19.57c0.107,1.186-0.07,2.415-0.573,3.586c-1.616,3.764-5.978,5.505-9.742,3.889
	c-0.918-0.394-1.713-0.954-2.371-1.626c0.237,2.626,1.869,5.043,4.462,6.156c3.764,1.616,8.126-0.125,9.742-3.889
	C44.07,24.84,43.37,21.654,41.33,19.57z"/>
<path opacity="0.1" fill="#004B6F" d="M17.654,8.167c0.077,0.856-0.051,1.742-0.413,2.587c-1.166,2.715-4.312,3.971-7.028,2.806
	c-0.662-0.284-1.236-0.688-1.711-1.173c0.171,1.895,1.348,3.638,3.219,4.441c2.715,1.166,5.862-0.09,7.028-2.806
	C19.631,11.968,19.126,9.67,17.654,8.167z"/>
<path opacity="0.1" fill="#004B6F" d="M16.485,30.049c0.068,0.749-0.044,1.526-0.362,2.266c-1.021,2.378-3.777,3.479-6.155,2.457
	c-0.58-0.249-1.083-0.603-1.498-1.027c0.15,1.659,1.181,3.186,2.819,3.89c2.378,1.021,5.134-0.079,6.155-2.457
	C18.216,33.379,17.774,31.366,16.485,30.049z"/>
</svg>
