<?xml version="1.0" encoding="utf-8"?>
<!-- Generator: Adobe Illustrator 19.2.1, SVG Export Plug-In . SVG Version: 6.00 Build 0)  -->
<svg version="1.1" id="Layer_1" xmlns="http://www.w3.org/2000/svg" xmlns:xlink="http://www.w3.org/1999/xlink" x="0px" y="0px"
	 viewBox="0 0 684 96.5" style="enable-background:new 0 0 684 96.5;" xml:space="preserve">
<style type="text/css">
	.st0{clip-path:url(#SVGID_2_);}
	.st1{clip-path:url(#SVGID_4_);}
	.st2{clip-path:url(#SVGID_6_);}
	.st3{clip-path:url(#SVGID_8_);}
	.st4{fill:#ED4B4A;}
	.st5{opacity:0.9;}
	.st6{opacity:0.3;}
	.st7{opacity:0.4;}
	.st8{fill:#F69027;}
	.st9{fill:#F27932;}
</style>
<g>
	<g>
		<g>
			<defs>
				<polygon id="SVGID_1_" points="445.9,82.3 468.5,43.1 491.1,82.3 				"/>
			</defs>
			<clipPath id="SVGID_2_">
				<use xlink:href="#SVGID_1_"  style="overflow:visible;"/>
			</clipPath>
			<g class="st0">
				
					<image style="overflow:visible;enable-background:new    ;" width="47" height="40" xlink:href="ACBFCC73.png"  transform="matrix(1 0 0 1 445 42.5396)">
				</image>
			</g>
		</g>
	</g>
</g>
<g>
	<g>
		<g>
			<defs>
				<path id="SVGID_3_" d="M469.2,91.8c0,0-0.1-0.5-0.1-1.4c-0.1-0.9-0.2-2.2-0.3-3.7c-0.1-1.5-0.2-3.3-0.2-5.2
					c-0.1-1.9-0.1-4-0.1-6c0-2,0-4.1,0.1-6c0-1.9,0.1-3.7,0.2-5.2c0.1-1.5,0.2-2.8,0.3-3.7c0.1-0.9,0.1-1.4,0.1-1.4s0.1,0.5,0.1,1.4
					c0.1,0.9,0.2,2.2,0.3,3.7c0.1,1.5,0.2,3.3,0.2,5.2c0.1,1.9,0.1,4,0.1,6c0,2,0,4.1-0.1,6c0,1.9-0.1,3.7-0.2,5.2
					c-0.1,1.5-0.2,2.8-0.3,3.7C469.3,91.3,469.2,91.8,469.2,91.8z"/>
			</defs>
			<clipPath id="SVGID_4_">
				<use xlink:href="#SVGID_3_"  style="overflow:visible;"/>
			</clipPath>
			<g class="st1">
				
					<image style="overflow:visible;enable-background:new    ;" width="2" height="34" xlink:href="ACBFCC71.png"  transform="matrix(1 0 0 1 468 58.5396)">
				</image>
			</g>
		</g>
	</g>
</g>
<g>
	<g>
		<g>
			<defs>
				<path id="SVGID_5_" d="M453.1,88.2c0,0,0.2-0.5,0.5-1.3c0.3-0.8,0.8-2,1.4-3.4c0.6-1.4,1.3-3,2.1-4.7c0.8-1.7,1.6-3.5,2.5-5.4
					c0.9-1.8,1.8-3.6,2.7-5.3c0.9-1.7,1.7-3.2,2.4-4.6c0.7-1.3,1.4-2.4,1.8-3.2c0.5-0.8,0.7-1.2,0.7-1.2s-0.2,0.5-0.5,1.3
					c-0.3,0.8-0.8,2-1.4,3.4c-0.6,1.4-1.3,3-2.1,4.7c-0.8,1.7-1.6,3.5-2.5,5.4c-0.9,1.8-1.8,3.6-2.7,5.3c-0.9,1.7-1.7,3.2-2.4,4.6
					c-0.7,1.3-1.4,2.4-1.8,3.2C453.3,87.7,453.1,88.2,453.1,88.2z"/>
			</defs>
			<clipPath id="SVGID_6_">
				<use xlink:href="#SVGID_5_"  style="overflow:visible;"/>
			</clipPath>
			<g class="st2">
				
					<image style="overflow:visible;enable-background:new    ;" width="15" height="30" xlink:href="ACBFCC77.png"  transform="matrix(1 0 0 1 453 58.5396)">
				</image>
			</g>
		</g>
	</g>
</g>
<g>
	<g>
		<g>
			<defs>
				<path id="SVGID_7_" d="M484.9,86.8c0,0-0.3-0.4-0.7-1.2c-0.4-0.8-1.1-1.8-1.8-3.2c-0.7-1.3-1.6-2.9-2.4-4.6
					c-0.9-1.7-1.8-3.5-2.7-5.3c-0.9-1.8-1.7-3.6-2.5-5.4c-0.8-1.7-1.5-3.3-2.1-4.7c-0.6-1.4-1-2.6-1.4-3.4c-0.3-0.8-0.5-1.3-0.5-1.3
					s0.3,0.4,0.7,1.2c0.4,0.8,1.1,1.8,1.8,3.2c0.7,1.3,1.6,2.9,2.4,4.6c0.9,1.7,1.8,3.5,2.7,5.3c0.9,1.8,1.7,3.6,2.5,5.4
					c0.8,1.7,1.5,3.3,2.1,4.7c0.6,1.4,1,2.6,1.4,3.4C484.7,86.3,484.9,86.8,484.9,86.8z"/>
			</defs>
			<clipPath id="SVGID_8_">
				<use xlink:href="#SVGID_7_"  style="overflow:visible;"/>
			</clipPath>
			<g class="st3">
				
					<image style="overflow:visible;enable-background:new    ;" width="15" height="31" xlink:href="ACBFCC71.png"  transform="matrix(1 0 0 1 470 56.5396)">
				</image>
			</g>
		</g>
	</g>
</g>
<g>
	
		<image style="overflow:visible;opacity:0.29;enable-background:new    ;" width="92" height="90" xlink:href="ACBFCC7E.png"  transform="matrix(0.9891 0 0 0.9889 423.5005 25.4407)">
	</image>
	<g>
		<g>
			<polygon class="st4" points="469.1,28.3 476.7,43.8 493.8,46.2 481.5,58.3 484.4,75.3 469.1,67.3 453.8,75.3 456.8,58.3 
				444.4,46.2 461.5,43.8 			"/>
		</g>
	</g>
</g>
<g>
	
		<image style="overflow:visible;opacity:0.29;enable-background:new    ;" width="92" height="90" xlink:href="ACBFCC7D.png"  transform="matrix(0.9891 0 0 0.9889 423.5005 25.4407)">
	</image>
	<g>
		<g>
			<polygon class="st4" points="469,28.3 476.6,43.8 493.7,46.2 481.3,58.3 484.2,75.3 469,67.3 453.7,75.3 456.6,58.3 444.2,46.2 
				461.3,43.8 			"/>
		</g>
	</g>
</g>
<g class="st5">
	
		<image style="overflow:visible;opacity:0.29;enable-background:new    ;" width="67" height="90" xlink:href="ACBFCC74.png"  transform="matrix(0.9851 0 0 0.9889 448.5005 25.4407)">
	</image>
	<g>
		<g>
			<polygon class="st4" points="469,28.3 476.6,43.8 493.7,46.2 481.3,58.3 484.2,75.3 469,67.3 			"/>
		</g>
	</g>
</g>
<g class="st6">
	
		<image style="overflow:visible;opacity:0.29;enable-background:new    ;" width="68" height="90" xlink:href="ACBFCC69.png"  transform="matrix(0.9853 0 0 0.9889 423.5005 25.4407)">
	</image>
	<g>
		<g>
			<polygon class="st4" points="469,28.3 461.3,43.8 444.2,46.2 456.6,58.3 453.7,75.3 469,67.3 			"/>
		</g>
	</g>
</g>
<g class="st6">
	<path class="st4" d="M74.4,65.8c-0.6,0-1.3-0.3-1.7-0.7c-0.9-0.9-0.9-2.5,0-3.4c0.9-0.9,2.5-0.9,3.4,0c0.9,0.9,0.9,2.5,0,3.4
		C75.6,65.6,75,65.8,74.4,65.8z M74.4,61.8c-0.4,0-0.8,0.2-1.1,0.5c-0.6,0.6-0.6,1.6,0,2.2c0.6,0.6,1.6,0.6,2.2,0
		c0.6-0.6,0.6-1.6,0-2.2C75.2,62,74.8,61.8,74.4,61.8z"/>
</g>
<g class="st7">
	<path class="st4" d="M232.6,61.7c-0.6,0-1.3-0.3-1.7-0.7c-0.9-0.9-0.9-2.5,0-3.4c0.9-0.9,2.5-0.9,3.4,0c0.9,0.9,0.9,2.5,0,3.4
		C233.9,61.4,233.3,61.7,232.6,61.7z M232.6,57.7c-0.4,0-0.8,0.2-1.1,0.5c-0.6,0.6-0.6,1.6,0,2.2c0.6,0.6,1.6,0.6,2.2,0
		c0.6-0.6,0.6-1.6,0-2.2C233.5,57.8,233.1,57.7,232.6,57.7z"/>
</g>
<g>
	<g>
		
			<image style="overflow:visible;opacity:0.29;enable-background:new    ;" width="41" height="40" xlink:href="ACBFCC6A.png"  transform="matrix(0.9756 0 0 0.975 73.4332 30.9728)">
		</image>
		<g>
			<g>
				<polygon class="st8" points="86.1,33.6 87.7,40.7 82.8,46 90,46.7 93.5,53 96.4,46.4 103.5,45 98,40.2 98.9,33 92.7,36.7 				
					"/>
			</g>
		</g>
	</g>
	<g class="st6">
		
			<image style="overflow:visible;opacity:0.29;enable-background:new    ;" width="33" height="39" xlink:href="F7B88CBA.png"  transform="matrix(0.9697 0 0 0.9744 74.4332 31.9728)">
		</image>
		<g>
			<g>
				<polygon class="st8" points="86.5,33.4 88,40.4 83.1,45.7 90.3,46.4 93.8,52.7 96.7,46.1 				"/>
			</g>
		</g>
	</g>
	<g>
		
			<image style="overflow:visible;opacity:0.29;enable-background:new    ;" width="51" height="51" xlink:href="F7B88CBB.png"  transform="matrix(0.9804 0 0 0.9804 75.9468 29.4864)">
		</image>
		<g>
			<g>
				<polygon class="st9" points="91.6,32.3 93.6,41.4 87.3,48.2 96.6,49.1 101.1,57.3 104.8,48.7 114,46.9 107,40.8 108.1,31.5 
					100.1,36.2 				"/>
			</g>
		</g>
	</g>
	<g class="st6">
		
			<image style="overflow:visible;opacity:0.29;enable-background:new    ;" width="42" height="50" xlink:href="F7B88CBC.png"  transform="matrix(0.9762 0 0 0.98 75.9468 30.4864)">
		</image>
		<g>
			<g>
				<polygon class="st9" points="91.6,32.3 93.6,41.4 87.3,48.2 96.6,49.1 101.1,57.3 104.8,48.7 				"/>
			</g>
		</g>
	</g>
	<g>
		
			<image style="overflow:visible;opacity:0.29;enable-background:new    ;" width="62" height="62" xlink:href="F7B88CBD.png"  transform="matrix(0.9839 0 0 0.9839 77.4604 27)">
		</image>
		<g>
			<g>
				<polygon class="st4" points="96.6,30.3 99,41.4 91.2,49.8 102.6,50.9 108.2,60.9 112.7,50.4 123.9,48.2 115.4,40.6 116.8,29.3 
					106.9,35.1 				"/>
			</g>
		</g>
	</g>
	<g class="st6">
		
			<image style="overflow:visible;opacity:0.29;enable-background:new    ;" width="51" height="61" xlink:href="F7B88CB8.png"  transform="matrix(0.9804 0 0 0.9836 77.4604 28)">
		</image>
		<g>
			<g>
				<polygon class="st4" points="96.6,30.3 99,41.4 91.2,49.8 102.6,50.9 108.2,60.9 112.7,50.4 				"/>
			</g>
		</g>
	</g>
</g>
<g>
	<g>
		
			<image style="overflow:visible;opacity:0.29;enable-background:new    ;" width="40" height="41" xlink:href="F7B88CB9.png"  transform="matrix(0.975 0 0 0.9756 139.4332 36.9728)">
		</image>
		<g>
			<g>
				<polygon class="st8" points="160.2,38.4 155.3,43.7 148.2,42.7 151.7,49 148.5,55.5 155.6,54.1 160.7,59.1 161.6,52 168,48.6 
					161.4,45.6 				"/>
			</g>
		</g>
	</g>
	<g class="st6">
		
			<image style="overflow:visible;opacity:0.29;enable-background:new    ;" width="32" height="37" xlink:href="F7B88CA8.png"  transform="matrix(0.9688 0 0 0.973 139.4332 36.9728)">
		</image>
		<g>
			<g>
				<polygon class="st8" points="160.6,38.6 155.7,43.9 148.6,42.8 152.1,49.1 148.9,55.6 156,54.2 				"/>
			</g>
		</g>
	</g>
	<g>
		
			<image style="overflow:visible;opacity:0.29;enable-background:new    ;" width="51" height="51" xlink:href="F7B88CA9.png"  transform="matrix(0.9804 0 0 0.9804 136.9468 40.4864)">
		</image>
		<g>
			<g>
				<polygon class="st9" points="164.4,42.2 158.1,49 148.9,47.7 153.4,55.8 149.3,64.2 158.4,62.4 165.1,68.9 166.2,59.7 
					174.5,55.3 166,51.4 				"/>
			</g>
		</g>
	</g>
	<g class="st6">
		
			<image style="overflow:visible;opacity:0.29;enable-background:new    ;" width="41" height="47" xlink:href="F7B88CAA.png"  transform="matrix(0.9756 0 0 0.9787 136.9468 40.4864)">
		</image>
		<g>
			<g>
				<polygon class="st9" points="164.4,42.2 158.1,49 148.9,47.7 153.4,55.8 149.3,64.2 158.4,62.4 				"/>
			</g>
		</g>
	</g>
	<g>
		
			<image style="overflow:visible;opacity:0.29;enable-background:new    ;" width="62" height="63" xlink:href="F7B88CAB.png"  transform="matrix(0.9839 0 0 0.9841 135.4604 43)">
		</image>
		<g>
			<g>
				<polygon class="st4" points="168.9,45.1 161.1,53.5 149.8,51.8 155.4,61.8 150.3,72.1 161.5,69.9 169.7,77.8 171.1,66.5 
					181.2,61.2 170.8,56.4 				"/>
			</g>
		</g>
	</g>
	<g class="st6">
		
			<image style="overflow:visible;opacity:0.29;enable-background:new    ;" width="49" height="57" xlink:href="F7B88CD9.png"  transform="matrix(0.9796 0 0 0.9825 135.4604 43)">
		</image>
		<g>
			<g>
				<polygon class="st4" points="168.9,45.1 161.1,53.5 149.8,51.8 155.4,61.8 150.3,72.1 161.5,69.9 				"/>
			</g>
		</g>
	</g>
</g>
<g>
	<g>
		
			<image style="overflow:visible;opacity:0.29;enable-background:new    ;" width="41" height="40" xlink:href="F7B88CCC.png"  transform="matrix(0.9756 0 0 0.975 189.4332 0.9728)">
		</image>
	</g>
	<g class="st6">
		
			<image style="overflow:visible;opacity:0.29;enable-background:new    ;" width="37" height="34" xlink:href="F7B88CCE.png"  transform="matrix(0.973 0 0 0.9706 189.4332 0.9728)">
		</image>
	</g>
	<g>
		
			<image style="overflow:visible;opacity:0.29;enable-background:new    ;" width="52" height="50" xlink:href="F7B88CF2.png"  transform="matrix(0.9808 0 0 0.98 184.9468 5.4864)">
		</image>
		<g>
			<g>
				<polygon class="st9" points="217.7,7.3 209.6,11.9 201.2,7.8 203.1,16.9 196.6,23.7 205.9,24.7 210.3,32.9 214.2,24.4 
					223.4,22.8 216.5,16.5 				"/>
			</g>
		</g>
	</g>
	<g class="st6">
		
			<image style="overflow:visible;opacity:0.29;enable-background:new    ;" width="46" height="42" xlink:href="F7B88CF3.png"  transform="matrix(0.9783 0 0 0.9762 184.9468 5.4864)">
		</image>
	</g>
	<g>
		
			<image style="overflow:visible;opacity:0.29;enable-background:new    ;" width="63" height="62" xlink:href="F7B88CF4.png"  transform="matrix(0.9841 0 0 0.9839 181.4604 9)">
		</image>
		<g>
			<g>
				<polygon class="st4" points="221.1,11.4 211.2,17 200.9,12 203.2,23.2 195.3,31.5 206.7,32.7 212,42.8 216.8,32.4 228,30.4 
					219.6,22.7 				"/>
			</g>
		</g>
	</g>
	<g class="st6">
		
			<image style="overflow:visible;opacity:0.29;enable-background:new    ;" width="56" height="51" xlink:href="F7B88CF5.png"  transform="matrix(0.9821 0 0 0.9804 181.4604 9)">
		</image>
		<g>
			<g>
				<polygon class="st4" points="221.1,11.4 211.2,17 200.9,12 203.2,23.2 195.3,31.5 206.7,32.7 				"/>
			</g>
		</g>
	</g>
</g>
<g>
	<g>
		
			<image style="overflow:visible;opacity:0.29;enable-background:new    ;" width="41" height="39" xlink:href="F7B88CF6.png"  transform="matrix(0.9756 0 0 0.9744 20.4332 46.9728)">
		</image>
		<g>
			<g>
				<polygon class="st8" points="40.2,48.2 37,54.6 29.9,55.7 35.1,60.7 33.8,67.9 40.2,64.5 46.6,67.9 45.4,60.7 50.6,55.7 
					43.4,54.6 				"/>
			</g>
		</g>
	</g>
	<g class="st6">
		
			<image style="overflow:visible;opacity:0.29;enable-background:new    ;" width="30" height="39" xlink:href="F7B88CF7.png"  transform="matrix(0.9667 0 0 0.9744 21.4332 46.9728)">
		</image>
		<g>
			<g>
				<polygon class="st8" points="41,48.2 37.6,54.6 30.4,55.7 35.5,60.7 34.5,67.9 41,64.5 				"/>
			</g>
		</g>
	</g>
	<g>
		
			<image style="overflow:visible;opacity:0.29;enable-background:new    ;" width="51" height="51" xlink:href="F7B88CF8.png"  transform="matrix(0.9804 0 0 0.9804 20.9468 48.4864)">
		</image>
		<g>
			<g>
				<polygon class="st9" points="45.4,50.6 41.2,58.9 32,60.3 38.7,66.8 37.1,76 45.4,71.6 53.6,76 52,66.8 58.7,60.3 49.5,58.9 
									"/>
			</g>
		</g>
	</g>
	<g class="st6">
		
			<image style="overflow:visible;opacity:0.29;enable-background:new    ;" width="38" height="51" xlink:href="F7B88CEB.png"  transform="matrix(0.9737 0 0 0.9804 20.9468 48.4864)">
		</image>
		<g>
			<g>
				<polygon class="st9" points="45,50.6 41.1,58.9 31.9,60.3 38.6,66.8 36.9,76 45,71.6 				"/>
			</g>
		</g>
	</g>
	<g>
		
			<image style="overflow:visible;opacity:0.29;enable-background:new    ;" width="62" height="61" xlink:href="F7B88CD0.png"  transform="matrix(0.9839 0 0 0.9836 20.4604 50)">
		</image>
		<g>
			<g>
				<polygon class="st4" points="50.5,52.1 45.4,62.3 34.1,64 42.3,71.9 40.4,83.2 50.5,77.9 60.6,83.2 58.7,71.9 66.9,64 
					55.5,62.3 				"/>
			</g>
		</g>
	</g>
	<g class="st6">
		
			<image style="overflow:visible;opacity:0.29;enable-background:new    ;" width="46" height="61" xlink:href="F7B88CD2.png"  transform="matrix(0.9783 0 0 0.9836 20.4604 50)">
		</image>
		<g>
			<g>
				<polygon class="st4" points="50,52.1 45.2,62.3 34,64 42.2,71.9 40.1,83.2 50,77.9 				"/>
			</g>
		</g>
	</g>
</g>
<g>
	<g>
		
			<image style="overflow:visible;opacity:0.29;enable-background:new    ;" width="41" height="41" xlink:href="F7B88CD3.png"  transform="matrix(0.9756 0 0 0.9756 254.4332 53.9728)">
		</image>
		<g>
			<g>
				<polygon class="st8" points="272.8,76.1 270.8,69.2 263.9,67 269.9,62.9 269.9,55.6 275.6,60 282.5,57.8 280.1,64.6 284.3,70.5 
					277.1,70.3 				"/>
			</g>
		</g>
	</g>
	<g class="st6">
		
			<image style="overflow:visible;opacity:0.29;enable-background:new    ;" width="32" height="41" xlink:href="F7B88CDF.png"  transform="matrix(0.9688 0 0 0.9756 255.4332 53.9728)">
		</image>
		<g>
			<g>
				<polygon class="st8" points="273.2,76.2 271.2,69.3 264.3,67 270.3,62.9 270.3,55.7 276,60.1 				"/>
			</g>
		</g>
	</g>
	<g>
		
			<image style="overflow:visible;opacity:0.29;enable-background:new    ;" width="52" height="51" xlink:href="F7B88CC1.png"  transform="matrix(0.9808 0 0 0.9804 254.9468 46.4864)">
		</image>
		<g>
			<g>
				<polygon class="st9" points="278.3,74.6 275.6,65.7 266.8,62.8 274.4,57.5 274.5,48.2 281.9,53.9 290.7,51 287.6,59.8 
					293.1,67.3 283.8,67.1 				"/>
			</g>
		</g>
	</g>
	<g class="st6">
		
			<image style="overflow:visible;opacity:0.29;enable-background:new    ;" width="40" height="51" xlink:href="F7B88CC2.png"  transform="matrix(0.975 0 0 0.9804 254.9468 46.4864)">
		</image>
		<g>
			<g>
				<polygon class="st9" points="278.3,74.6 275.6,65.7 266.8,62.8 274.4,57.5 274.5,48.2 281.9,53.9 				"/>
			</g>
		</g>
	</g>
	<g>
		
			<image style="overflow:visible;opacity:0.29;enable-background:new    ;" width="62" height="63" xlink:href="F7B88CC3.png"  transform="matrix(0.9839 0 0 0.9841 255.4604 39)">
		</image>
		<g>
			<g>
				<polygon class="st4" points="283.6,74 280.3,63.1 269.5,59.5 278.9,53 278.9,41.6 288,48.6 298.8,45.1 295,55.8 301.7,65.1 
					290.3,64.8 				"/>
			</g>
		</g>
	</g>
	<g class="st6">
		
			<image style="overflow:visible;opacity:0.29;enable-background:new    ;" width="48" height="63" xlink:href="F7B88CC4.png"  transform="matrix(0.9792 0 0 0.9841 255.4604 39)">
		</image>
		<g>
			<g>
				<polygon class="st4" points="283.6,74 280.3,63.1 269.5,59.5 278.9,53 278.9,41.6 288,48.6 				"/>
			</g>
		</g>
	</g>
</g>
<g class="st7">
	<path class="st4" d="M401.9,83.3c-0.6,0-1.3-0.3-1.7-0.7c-0.9-0.9-0.9-2.5,0-3.4c0.9-0.9,2.5-0.9,3.4,0c0.9,0.9,0.9,2.5,0,3.4
		C403.2,83,402.6,83.3,401.9,83.3z M401.9,79.3c-0.4,0-0.8,0.2-1.1,0.5c-0.6,0.6-0.6,1.6,0,2.2c0.6,0.6,1.6,0.6,2.2,0
		c0.6-0.6,0.6-1.6,0-2.2C402.8,79.4,402.4,79.3,401.9,79.3z"/>
</g>
<g>
	<g>
		
			<image style="overflow:visible;opacity:0.29;enable-background:new    ;" width="41" height="40" xlink:href="F7B88CC0.png"  transform="matrix(0.9756 0 0 0.975 609.4332 47.9728)">
		</image>
		<g>
			<g>
				<polygon class="st8" points="636,69.5 634.4,62.4 639.4,57.1 632.2,56.4 628.6,50.1 625.8,56.7 618.7,58.1 624.1,62.9 
					623.2,70.1 629.4,66.4 				"/>
			</g>
		</g>
	</g>
	<g class="st6">
		
			<image style="overflow:visible;opacity:0.29;enable-background:new    ;" width="34" height="39" xlink:href="F7B88D35.png"  transform="matrix(0.9706 0 0 0.9744 616.4332 48.9728)">
		</image>
		<g>
			<g>
				<polygon class="st8" points="635.7,69.7 634.1,62.7 639,57.4 631.8,56.7 628.3,50.4 625.4,57 				"/>
			</g>
		</g>
	</g>
	<g>
		
			<image style="overflow:visible;opacity:0.29;enable-background:new    ;" width="51" height="51" xlink:href="F7B88D36.png"  transform="matrix(0.9804 0 0 0.9804 596.9468 43.4864)">
		</image>
		<g>
			<g>
				<polygon class="st9" points="630.5,70.8 628.5,61.7 634.8,54.9 625.5,54 621,45.8 617.3,54.4 608.1,56.2 615.1,62.3 614,71.6 
					622,66.9 				"/>
			</g>
		</g>
	</g>
	<g class="st6">
		
			<image style="overflow:visible;opacity:0.29;enable-background:new    ;" width="42" height="50" xlink:href="F7B88D34.png"  transform="matrix(0.9762 0 0 0.98 605.9468 43.4864)">
		</image>
		<g>
			<g>
				<polygon class="st9" points="630.5,70.8 628.5,61.7 634.8,54.9 625.5,54 621,45.8 617.3,54.4 				"/>
			</g>
		</g>
	</g>
	<g>
		
			<image style="overflow:visible;opacity:0.29;enable-background:new    ;" width="62" height="62" xlink:href="F7B88D2C.png"  transform="matrix(0.9839 0 0 0.9839 584.4604 40)">
		</image>
		<g>
			<g>
				<polygon class="st4" points="625.6,72.8 623.1,61.7 630.9,53.3 619.5,52.2 613.9,42.2 609.4,52.7 598.2,54.9 606.7,62.5 
					605.4,73.8 615.2,68 				"/>
			</g>
		</g>
	</g>
	<g class="st6">
		
			<image style="overflow:visible;opacity:0.29;enable-background:new    ;" width="51" height="61" xlink:href="F7B88D2D.png"  transform="matrix(0.9804 0 0 0.9836 595.4604 40)">
		</image>
		<g>
			<g>
				<polygon class="st4" points="625.6,72.8 623.1,61.7 630.9,53.3 619.5,52.2 613.9,42.2 609.4,52.7 				"/>
			</g>
		</g>
	</g>
</g>
<g>
	<g>
		
			<image style="overflow:visible;opacity:0.29;enable-background:new    ;" width="39" height="41" xlink:href="F7B88D2A.png"  transform="matrix(0.9744 0 0 0.9756 545.4332 41.9728)">
		</image>
		<g>
			<g>
				<polygon class="st8" points="561.9,64.7 566.8,59.4 574,60.4 570.4,54.1 573.7,47.6 566.6,49 561.4,44 560.5,51.1 554.1,54.5 
					560.7,57.5 				"/>
			</g>
		</g>
	</g>
	<g class="st6">
		
			<image style="overflow:visible;opacity:0.29;enable-background:new    ;" width="32" height="37" xlink:href="F7B88D2B.png"  transform="matrix(0.9688 0 0 0.973 552.4332 45.9728)">
		</image>
		<g>
			<g>
				<polygon class="st8" points="561.5,64.6 566.4,59.3 573.6,60.3 570,54 573.2,47.5 566.2,48.9 				"/>
			</g>
		</g>
	</g>
	<g>
		
			<image style="overflow:visible;opacity:0.29;enable-background:new    ;" width="51" height="51" xlink:href="F7B88D10.png"  transform="matrix(0.9804 0 0 0.9804 535.9468 32.4864)">
		</image>
		<g>
			<g>
				<polygon class="st9" points="557.7,60.9 564,54.1 573.3,55.4 568.7,47.3 572.8,38.9 563.7,40.7 557,34.2 555.9,43.5 547.6,47.8 
					556.1,51.7 				"/>
			</g>
		</g>
	</g>
	<g class="st6">
		
			<image style="overflow:visible;opacity:0.29;enable-background:new    ;" width="41" height="47" xlink:href="F7B88D12.png"  transform="matrix(0.9756 0 0 0.9787 545.9468 36.4864)">
		</image>
		<g>
			<g>
				<polygon class="st9" points="557.7,60.9 564,54.1 573.3,55.4 568.7,47.3 572.8,38.9 563.7,40.7 				"/>
			</g>
		</g>
	</g>
	<g>
		
			<image style="overflow:visible;opacity:0.29;enable-background:new    ;" width="62" height="63" xlink:href="F7B88D16.png"  transform="matrix(0.9839 0 0 0.9841 526.4604 23)">
		</image>
		<g>
			<g>
				<polygon class="st4" points="553.2,58 561,49.6 572.3,51.3 566.7,41.3 571.8,31.1 560.6,33.3 552.4,25.3 551,36.6 540.9,41.9 
					551.3,46.7 				"/>
			</g>
		</g>
	</g>
	<g class="st6">
		
			<image style="overflow:visible;opacity:0.29;enable-background:new    ;" width="49" height="57" xlink:href="F7B88D0D.png"  transform="matrix(0.9796 0 0 0.9825 539.4604 29)">
		</image>
		<g>
			<g>
				<polygon class="st4" points="553.2,58 561,49.6 572.3,51.3 566.7,41.3 571.8,31.1 560.6,33.3 				"/>
			</g>
		</g>
	</g>
</g>
<g>
	<g>
		
			<image style="overflow:visible;opacity:0.29;enable-background:new    ;" width="41" height="40" xlink:href="F7B88D0A.png"  transform="matrix(0.9756 0 0 0.975 327.4332 20.9728)">
		</image>
		<g>
			<g>
				<polygon class="st8" points="341.3,42.7 347.6,39.2 354.1,42.3 352.6,35.2 357.6,30 350.4,29.2 347,22.8 344,29.4 336.9,30.7 
					342.3,35.6 				"/>
			</g>
		</g>
	</g>
	<g class="st6">
		
			<image style="overflow:visible;opacity:0.29;enable-background:new    ;" width="37" height="34" xlink:href="F7B88D76.png"  transform="matrix(0.973 0 0 0.9706 331.4332 26.9728)">
		</image>
		<g>
			<g>
				<polygon class="st8" points="340.9,42.5 347.2,38.9 353.7,42.1 352.3,35 357.3,29.8 350.1,29 				"/>
			</g>
		</g>
	</g>
	<g>
		
			<image style="overflow:visible;opacity:0.29;enable-background:new    ;" width="52" height="50" xlink:href="F7B88D79.png"  transform="matrix(0.9808 0 0 0.98 320.9468 10.4864)">
		</image>
		<g>
			<g>
				<polygon class="st9" points="338.4,37.9 346.5,33.3 354.9,37.3 353,28.2 359.5,21.5 350.2,20.4 345.8,12.2 341.9,20.7 
					332.8,22.3 339.7,28.6 				"/>
			</g>
		</g>
	</g>
	<g class="st6">
		
			<image style="overflow:visible;opacity:0.29;enable-background:new    ;" width="46" height="42" xlink:href="F7B88D78.png"  transform="matrix(0.9783 0 0 0.9762 326.9468 18.4864)">
		</image>
		<g>
			<g>
				<polygon class="st9" points="338.4,37.9 346.5,33.3 354.9,37.3 353,28.2 359.5,21.5 350.2,20.4 				"/>
			</g>
		</g>
	</g>
	<g>
		
			<image style="overflow:visible;opacity:0.29;enable-background:new    ;" width="62" height="61" xlink:href="F7B88D7E.png"  transform="matrix(0.9839 0 0 0.9836 314.4604 0)">
		</image>
		<g>
			<g>
				<polygon class="st4" points="335,33.7 344.9,28.1 355.2,33.1 352.9,21.9 360.8,13.7 349.5,12.4 344.1,2.3 339.4,12.7 
					328.1,14.7 336.5,22.4 				"/>
			</g>
		</g>
	</g>
	<g class="st6">
		
			<image style="overflow:visible;opacity:0.29;enable-background:new    ;" width="56" height="51" xlink:href="F7B88D04.png"  transform="matrix(0.9821 0 0 0.9804 320.4604 10)">
		</image>
		<g>
			<g>
				<polygon class="st4" points="335,33.7 344.9,28.1 355.2,33.1 352.9,21.9 360.8,13.7 349.5,12.4 				"/>
			</g>
		</g>
	</g>
</g>
<g>
	<g>
		
			<image style="overflow:visible;opacity:0.29;enable-background:new    ;" width="63" height="61" xlink:href="F7B88D05.png"  transform="matrix(0.9841 0 0 0.9836 640.4604 18)">
		</image>
	</g>
</g>
<g>
	<g>
		
			<image style="overflow:visible;opacity:0.29;enable-background:new    ;" width="41" height="41" xlink:href="F7B88D06.png"  transform="matrix(0.9756 0 0 0.9756 371.4332 69.9728)">
		</image>
		<g>
			<g>
				<polygon class="st8" points="389.8,92.1 387.8,85.2 380.9,83 386.9,78.9 386.9,71.6 392.6,76 399.5,73.8 397.1,80.6 401.3,86.5 
					394.1,86.3 				"/>
			</g>
		</g>
	</g>
	<g class="st6">
		
			<image style="overflow:visible;opacity:0.29;enable-background:new    ;" width="32" height="41" xlink:href="F7B88D07.png"  transform="matrix(0.9688 0 0 0.9756 372.4332 69.9728)">
		</image>
		<g>
			<g>
				<polygon class="st8" points="390.2,92.2 388.2,85.3 381.3,83 387.3,78.9 387.3,71.7 393,76.1 				"/>
			</g>
		</g>
	</g>
	<g>
		
			<image style="overflow:visible;opacity:0.29;enable-background:new    ;" width="52" height="51" xlink:href="F7B88D5E.png"  transform="matrix(0.9808 0 0 0.9804 371.9468 62.4864)">
		</image>
		<g>
			<g>
				<polygon class="st9" points="395.3,90.6 392.6,81.7 383.8,78.8 391.4,73.5 391.5,64.2 398.9,69.9 407.7,67 404.6,75.8 
					410.1,83.3 400.8,83.1 				"/>
			</g>
		</g>
	</g>
	<g class="st6">
		
			<image style="overflow:visible;opacity:0.29;enable-background:new    ;" width="40" height="51" xlink:href="F7B88D5A.png"  transform="matrix(0.975 0 0 0.9804 371.9468 62.4864)">
		</image>
		<g>
			<g>
				<polygon class="st9" points="395.3,90.6 392.6,81.7 383.8,78.8 391.4,73.5 391.5,64.2 398.9,69.9 				"/>
			</g>
		</g>
	</g>
	<g>
		
			<image style="overflow:visible;opacity:0.29;enable-background:new    ;" width="62" height="63" xlink:href="F7B88D25.png"  transform="matrix(0.9839 0 0 0.9841 372.4604 55)">
		</image>
		<g>
			<g>
				<polygon class="st4" points="400.6,90 397.3,79.1 386.5,75.5 395.9,69 395.9,57.6 405,64.6 415.8,61.1 412,71.8 418.7,81.1 
					407.3,80.8 				"/>
			</g>
		</g>
	</g>
	<g class="st6">
		
			<image style="overflow:visible;opacity:0.29;enable-background:new    ;" width="48" height="63" xlink:href="F7B88D27.png"  transform="matrix(0.9792 0 0 0.9841 372.4604 55)">
		</image>
		<g>
			<g>
				<polygon class="st4" points="400.6,90 397.3,79.1 386.5,75.5 395.9,69 395.9,57.6 405,64.6 				"/>
			</g>
		</g>
	</g>
</g>
</svg>
